<svg xmlns="http://www.w3.org/2000/svg" viewBox="0 0 170.99 252.75"><defs><style>.cls-1{fill:#d7d7d7;}.cls-2{fill:#ec1c24;}.cls-3{fill:#fff100;}.cls-4{fill:#00a551;}.cls-5{fill:#00adee;}.cls-6{fill:#c3996b;}.cls-7{fill:#eb008b;}.cls-8{font-size:4.5px;fill:#231f20;font-family:LetterGothicStd-Slanted, Letter Gothic Std;}.cls-9{fill:none;stroke:#929497;stroke-miterlimit:10;stroke-width:0.5px;}</style></defs><title>170627chartonly2</title><g id="barchart"><g id="rectangles"><rect id="rect15" class="cls-1" x="16.92" y="178.91" width="27" height="54"/><rect id="rect11" class="cls-2" x="16.92" y="151.92" width="26.99" height="26.99" transform="translate(60.84 330.84) rotate(180)"/><rect id="rect10" class="cls-3" x="16.92" y="138.41" width="27" height="13.5" transform="translate(60.83 290.33) rotate(180)"/><rect id="rect9" class="cls-4" x="16.92" y="124.91" width="27" height="13.5"/><rect id="rect8" class="cls-5" x="16.92" y="97.91" width="27" height="27"/><rect id="rect5" class="cls-6" x="16.92" y="70.91" width="27" height="27"/><rect id="rect1" class="cls-7" x="16.92" y="16.91" width="27" height="54"/></g><g id="txt"><text class="cls-8" transform="translate(48.42 66.41)">Russian</text><text class="cls-8" transform="translate(48.42 93.41)">Patois</text><text class="cls-8" transform="translate(48.42 120.41)">Polish</text><text class="cls-8" transform="translate(48.42 133.91)">Arabic</text><text class="cls-8" transform="translate(48.42 147.41)">Spanish</text><text class="cls-8" transform="translate(48.42 169.95)">Chinese</text><text class="cls-8" transform="translate(48.42 228.41)">English (General American Dialect)</text></g><g id="lines"><line class="cls-9" x1="16.92" y1="70.91" x2="52.92" y2="70.91"/><line class="cls-9" x1="16.92" y1="97.91" x2="52.92" y2="97.91"/><line class="cls-9" x1="16.92" y1="124.91" x2="52.92" y2="124.91"/><line class="cls-9" x1="16.92" y1="138.41" x2="52.92" y2="138.41"/><line class="cls-9" x1="16.92" y1="178.91" x2="52.92" y2="178.91"/><line class="cls-9" x1="16.92" y1="232.91" x2="52.92" y2="232.91"/><line class="cls-9" x1="16.92" y1="151.91" x2="52.92" y2="151.91"/></g></g></svg>