<?xml version="1.0" encoding="utf-8"?>
<!-- Generator: Adobe Illustrator 21.0.2, SVG Export Plug-In . SVG Version: 6.00 Build 0)  -->
<svg version="1.1" xmlns="http://www.w3.org/2000/svg" xmlns:xlink="http://www.w3.org/1999/xlink" x="0px" y="0px"
	 viewBox="0 0 1075.1 554.6" style="enable-background:new 0 0 1075.1 554.6;" xml:space="preserve">
<style type="text/css">
	.st0{display:none;}
	.st1{display:inline;}
	.st2{opacity:0.15;fill:#D8D8D6;stroke:#939393;stroke-width:0.25;stroke-miterlimit:10;}
	.st3{fill:#D8D8D6;fill-opacity:0.2;stroke:#939393;stroke-width:0.25;stroke-miterlimit:10;}
	.st4{clip-path:url(#SVGID_2_);fill:#F2F2F2;}
	.st5{clip-path:url(#SVGID_4_);fill:#F2F2F2;}
	.st6{fill:none;stroke:#000000;stroke-width:0.5;stroke-linecap:round;stroke-linejoin:round;}
	.st7{fill:none;stroke:#000000;stroke-width:0.25;stroke-linecap:round;stroke-linejoin:round;}
	.st8{opacity:0.2;}
	.st9{display:inline;fill:#FFFFFF;}
	.st10{opacity:0.75;fill:#F28F3B;stroke:#AD5E23;stroke-width:0.25;stroke-miterlimit:10;}
	.st11{opacity:0.75;fill-rule:evenodd;clip-rule:evenodd;fill:#F28F3B;stroke:#AD5E23;stroke-width:0.25;stroke-miterlimit:10;}
	.st12{opacity:0.5;fill-rule:evenodd;clip-rule:evenodd;}
	.st13{opacity:0.75;fill:#D1D1D1;stroke:#959692;stroke-width:0.25;stroke-miterlimit:10;}
	.st14{opacity:0.75;fill-rule:evenodd;clip-rule:evenodd;fill:#D1D1D1;stroke:#959692;stroke-width:0.25;stroke-miterlimit:10;}
	.st15{opacity:0.75;fill:#FF0606;stroke:#C90505;stroke-width:0.25;stroke-miterlimit:10;}
	.st16{opacity:0.75;fill-rule:evenodd;clip-rule:evenodd;fill:#FF0606;stroke:#C90505;stroke-width:0.25;stroke-miterlimit:10;}
	.st17{opacity:0.75;fill:#F3FC7E;stroke:#B1B280;stroke-width:0.25;stroke-miterlimit:10;}
	.st18{opacity:0.75;fill-rule:evenodd;clip-rule:evenodd;fill:#F3FC7E;stroke:#B1B280;stroke-width:0.25;stroke-miterlimit:10;}
	.st19{opacity:0.75;fill-rule:evenodd;clip-rule:evenodd;fill:#384E77;stroke:#1F2F47;stroke-width:0.25;stroke-miterlimit:10;}
	.st20{opacity:0.75;fill-rule:evenodd;clip-rule:evenodd;fill:#7A1859;stroke:#17183B;stroke-width:0.25;stroke-miterlimit:10;}
	.st21{opacity:0.75;fill:#7A1859;stroke:#17183B;stroke-width:0.25;stroke-miterlimit:10;}
	.st22{opacity:0.75;fill:#384E77;stroke:#1F2F47;stroke-width:0.25;stroke-miterlimit:10;}
	.st23{fill:#231F20;}
	.st24{font-family:'LetterGothicStd';}
	.st25{font-size:11.2022px;}
	.st26{opacity:0.75;fill:none;stroke:#929497;stroke-width:0.25;stroke-miterlimit:10;}
</style>
<g id="floor" class="st0">
	<g id="road" class="st1">
		<polygon class="st2" points="-226.1,430.8 355.8,94.8 872,392.9 883.1,788.6 -39.5,658.5 		"/>
	</g>
	<g id="sidewalk" class="st1">
		<polygon class="st3" points="366.3,100.2 355.8,94.1 355.8,88.5 370.9,97.2 825.1,359.4 872,386.6 872,392.2 825.1,365.1 		"/>
		<polygon class="st3" points="872,392.9 872,386.6 937.8,348.6 937.8,354.9 		"/>
		<polyline class="st3" points="355.8,88.5 -226.1,424.5 -291.8,386.6 290.1,50.6 		"/>
		<polyline class="st3" points="-226.1,424.5 -226.1,430.8 355.8,94.8 355.8,88.5 		"/>
		<path class="st3" d="M355.8,88.5l516.2,298l65.7-38L397.7,36.8l-0.2,0c-11.2-6.1-25.8-9.8-41.8-9.8c-16.3,0-31.1,3.8-42.3,10.1
			l-23.3,13.5"/>
	</g>
</g>
<g id="trucks" class="st0">
	<g id="FILL" class="st1">
		<g id="left">
			<g>
				<defs>
					<path id="SVGID_1_" d="M345.3,210.5l-10.7-6.2v-1.5l4.8-2.8v-11.4l21.9-12.7l-4.4-2.5l-61.1-30.9l-105,60.8l6.7,3.4v31.1
						L161.8,220l-105,60.8l6.7,3.4v57.4l-0.4-0.2v4.7l0.4,0.1l1.5-0.9l7,4l-4.5,2.7v2.5L99.6,373l6.7-3.9l10.7,6.2v1.7l0.6,0.3
						l29.5-17c1.9,2.9,5.3,1.4,7.5-0.3c2.4-1.9,3.8-4.1,4.8-6.8l52.5-30.3v-4.6l-0.6-0.3v-30.1l-10.7-6.2v-1.5l3.1-1.8l29.9,17.3
						l6.7-3.9l10.7,6.2v1.7l0.6,0.3l37.3-21.5l-7.8,4.5c1.9,2.9,5.3,1.4,7.5-0.3c2.4-1.9,3.8-4.1,4.8-6.8l52.5-30.3v-4.6l-0.6-0.3
						V210.5z"/>
				</defs>
				<use xlink:href="#SVGID_1_"  style="overflow:visible;fill:#F2F2F2;"/>
				<clipPath id="SVGID_2_">
					<use xlink:href="#SVGID_1_"  style="overflow:visible;"/>
				</clipPath>
				<path class="st4" d="M215.2,99.2c-34.1,26.9-32.6,44.3-55,58.3c-30.5,19.1-46.3-4.9-77.2,9.9c-39.5,19-52.8,77-57.9,99.1
					c-2.7,12-23,100.1,18.3,151.9c29,36.4,58.8,17.9,134.1,47.3c84.9,33.2,77.2,68.5,140.9,87c55.6,16.2,61.9-10.6,205.5-29.7
					c91.4-12.2,115.4-4.8,165.9-30.8c23.5-12.1,89.6-46.1,93.6-102.4c2-28.7-12.7-53.8-23.2-71.6c-13.6-23.1-25-30.8-63.7-66
					c-44.5-40.7-66.8-61-77.2-77.1c-32.5-50.3-80.3-90.4-169.8-89.2c-33.7,0.5-51.8,0.5-76.2-6.6c-27.3-8-32-16-55-17.6
					c-28.9-2-53,8.6-65.6,14.3C246.3,79,231.8,86.1,215.2,99.2z"/>
			</g>
		</g>
		<g id="right">
			<g>
				<defs>
					<path id="SVGID_3_" d="M631.5,359.7l40.2,23.2l0.6-0.3v-1.7l42.7-24.7l0.1-2.9v-30.1l10.7-6.2v-30.2l4-2.2l-105-60.6l-20,10.1
						v-45.1l-109.1-65.8l-33.2-16.3l-78.6,45.4l-8.9,23.8L354.1,188v4.2v16.2l-0.1,2l12.5,7.6l9.5-5.5l0.2,0.2
						c-2.1,4-0.7,9.9,0.7,13.3c2.2,5.3,4.9,9.3,10,12.2c2.9,1.7,6.4,2.3,8.8,0.5l3.4-1.9l83.8,48.4l9.4-5.5l0,0
						c-2.1,4-0.7,9.9,0.7,13.4c2.2,5.3,4.9,9.2,10,12.2c3.9,2.2,8.7,2.7,10.9-2.1l13.5,7.8l50.6-29.2v11.5l-4,2.3l-0.9,1.1l-0.4,1.2
						l0.2,1l0.5,1.2l1.1,1.2l1.2,0.9l2.4,1.4v19.8l-0.6,0.3v4.6l41.8,24.1c1,2.7,2.4,4.9,4.7,6.7c2,1.6,5.3,3.2,7.4,0.7"/>
				</defs>
				<use xlink:href="#SVGID_3_"  style="overflow:visible;fill:#F2F2F2;"/>
				<clipPath id="SVGID_4_">
					<use xlink:href="#SVGID_3_"  style="overflow:visible;"/>
				</clipPath>
				<path class="st5" d="M217.2,91.2c-34.1,26.9-32.6,44.3-55,58.3c-30.5,19.1-46.3-4.9-77.2,9.9c-39.5,19-52.8,77-57.9,99.1
					c-2.7,12-23,100.1,18.3,151.9c29,36.4,58.8,17.9,134.1,47.3c84.9,33.2,77.2,68.5,140.9,87c55.6,16.2,61.9-10.6,205.5-29.7
					c91.4-12.2,115.4-4.8,165.9-30.8c23.5-12.1,89.6-46.1,93.6-102.4c2-28.7-12.7-53.8-23.2-71.6c-13.6-23.1-25-30.8-63.7-66
					c-44.5-40.7-66.8-61-77.2-77.1c-32.5-50.3-80.3-90.4-169.8-89.2c-33.7,0.5-51.8,0.5-76.2-6.6c-27.3-8-32-16-55-17.6
					c-28.9-2-53,8.6-65.6,14.3C248.3,71,233.8,78.1,217.2,91.2z"/>
			</g>
		</g>
	</g>
	<g id="shell" class="st1">
		<path class="st6" d="M498.4,280.6c-1.1-0.8-2.2-1.5-3.5-2"/>
		<path class="st6" d="M494.8,278.5C494.8,278.5,494.8,278.5,494.8,278.5"/>
		<path class="st6" d="M494,278.2c-0.2-0.1-0.4-0.1-0.6-0.2"/>
		<path class="st6" d="M493.1,277.9c-0.2-0.1-0.4-0.1-0.6-0.1"/>
		<path class="st6" d="M487.4,278.2C487.4,278.2,487.3,278.2,487.4,278.2"/>
		<path class="st6" d="M487.1,278.3C487.1,278.3,487.1,278.3,487.1,278.3"/>
		<path class="st6" d="M486.8,278.5c-0.1,0-0.1,0.1-0.2,0.1"/>
		<path class="st6" d="M486.5,278.7c-0.3,0.2-0.5,0.4-0.7,0.6"/>
		<path class="st6" d="M417.3,247.4c-6.6-3.8-13.3-7.7-19.9-11.5c-0.8-0.5-1.7-1-2.5-1.4c-1-0.6-1-1.5-1.1-2.4
			c-0.4-2.2-1.1-4.3-2-6.3c-2-4.5-4.5-8.1-8.3-11.3c-2.8-2.3-6.9-4.8-10.9-4c-1.8,0.4-3,1.2-4.1,2.6c-0.5,0.7-0.9,1.5-1.2,2.3
			c-0.2,0.4-0.3,0.9-0.4,1.3c-0.1,0.2-0.1,0.5-0.1,0.7c0,0.2,0.3,0.9-0.1,0.7c-3.9-2.2-7.8-4.5-11.7-6.7c-1.3-0.8-0.7-1.9-0.7-2.9
			c0-1.1,0-2.2,0-3.4c0-2.2,0-4.5,0-6.7c0-2.5,0-5,0-7.4c0-0.6-0.5-2.9,0.6-3c0.9-0.1,1.9-0.1,2.8-0.2c3.8-0.2,7.5-0.4,11.3-0.6
			c0.9,0,1.9,0.2,2.3-1c0.4-1,0.7-1.9,1.1-2.9c0.7-1.9,1.4-3.8,2.2-5.8c1.4-3.8,2.9-7.7,4.3-11.5c1.3-3.5,2.6-7,3.9-10.5
			c0.3-0.9,0.7-1.7,1-2.6c0.2-0.4,0.2-0.9,0.8-0.7c0.5,0.2,1,0.5,1.5,0.7c1.9,1,3.9,1.9,5.8,2.9c7.8,3.8,15.5,7.6,23.3,11.5
			c7.4,3.7,14.2,8.3,21.2,12.6c7.1,4.3,14.2,8.5,21.2,12.8c14.1,8.5,28.3,17,42.4,25.6c7.1,4.3,14.2,8.6,21.3,12.8
			c0.9,0.5,1.8,1.1,2.7,1.6c0.3,0.2,2.4,1.3,2.4,1.8c0,2,0,4.1,0,6.1c0,4.1,0,8.2,0,12.3c0,16.5,0,33,0,49.5"/>
		<line class="st6" x1="434.2" y1="214.2" x2="434.2" y2="222.7"/>
		<line class="st6" x1="434.2" y1="222.7" x2="442.1" y2="227.3"/>
		<line class="st6" x1="463.8" y1="239.8" x2="442.1" y2="227.3"/>
		<line class="st6" x1="463.8" y1="239.8" x2="511.7" y2="267.5"/>
		<line class="st6" x1="511.7" y1="267.5" x2="511.7" y2="244.4"/>
		<line class="st6" x1="511.7" y1="244.4" x2="511.7" y2="242.2"/>
		<path class="st6" d="M502.5,284.2c0,0-0.1-0.1-0.1-0.1"/>
		<line class="st6" x1="488.1" y1="277.9" x2="485.8" y2="279.2"/>
		<line class="st6" x1="572" y1="276" x2="526.1" y2="302.5"/>
		<line class="st6" x1="604.8" y1="188.9" x2="604.8" y2="234"/>
		<line class="st6" x1="417.3" y1="239.7" x2="485.8" y2="279.2"/>
		<line class="st6" x1="417.3" y1="247.5" x2="417.3" y2="239.7"/>
		<line class="st6" x1="482.9" y1="285.4" x2="417.3" y2="247.5"/>
		<path class="st6" d="M484,281.7c-0.3,0.6-0.5,1.3-0.7,1.9"/>
		<path class="st6" d="M485.8,279.2c-0.6,0.6-1.1,1.2-1.6,2"/>
		<line class="st6" x1="527.4" y1="311.1" x2="510.4" y2="301.3"/>
		<line class="st6" x1="375" y1="175.9" x2="354.1" y2="188"/>
		<line class="st6" x1="376.4" y1="212.5" x2="366.5" y2="218.1"/>
		<line class="st6" x1="492.4" y1="279.9" x2="482.9" y2="285.4"/>
		<line class="st6" x1="573.3" y1="276.8" x2="527.4" y2="303.3"/>
		<line class="st6" x1="527.4" y1="311.1" x2="578" y2="281.9"/>
		<line class="st6" x1="511.7" y1="244.4" x2="499.1" y2="251.7"/>
		<line class="st6" x1="499.1" y1="251.7" x2="421.5" y2="206.9"/>
		<line class="st6" x1="499.1" y1="249.5" x2="421.5" y2="204.8"/>
		<line class="st6" x1="421.5" y1="204.8" x2="434.2" y2="195.1"/>
		<line class="st6" x1="434.2" y1="195.1" x2="511.7" y2="239.9"/>
		<line class="st6" x1="511.7" y1="239.9" x2="499.1" y2="249.5"/>
		<line class="st6" x1="511.7" y1="239.9" x2="511.7" y2="242.2"/>
		<line class="st6" x1="499.1" y1="251.7" x2="499.1" y2="249.5"/>
		<line class="st6" x1="421.5" y1="204.8" x2="421.5" y2="206.9"/>
		<path class="st6" d="M483.3,283.6c-0.2,0.6-0.3,1.2-0.3,1.8"/>
		<path class="st6" d="M484.2,281.2c-0.1,0.2-0.2,0.3-0.3,0.5"/>
		<path class="st6" d="M486.6,278.6C486.6,278.6,486.6,278.6,486.6,278.6"/>
		<path class="st6" d="M487.1,278.3c-0.1,0-0.2,0.1-0.3,0.1"/>
		<path class="st6" d="M487.3,278.2c-0.1,0-0.1,0.1-0.2,0.1"/>
		<path class="st6" d="M492.6,277.8c-1.8-0.4-3.4-0.4-5.2,0.4"/>
		<line class="st6" x1="527.4" y1="303.3" x2="527.4" y2="311.1"/>
		<line class="st6" x1="507.6" y1="291.8" x2="527.4" y2="303.3"/>
		<path class="st6" d="M510.4,301.3c-0.1-0.7-0.2-1.3-0.3-2"/>
		<path class="st6" d="M493.4,278c-0.1,0-0.2-0.1-0.3-0.1"/>
		<path class="st6" d="M494.8,278.5c-0.2-0.1-0.5-0.2-0.7-0.3"/>
		<path class="st6" d="M494.9,278.5C494.9,278.5,494.9,278.5,494.9,278.5"/>
		<path class="st6" d="M502.4,284.1c-1.2-1.3-2.5-2.5-3.9-3.6"/>
		<path class="st6" d="M510.1,299.3c-1.2-5.9-3.6-10.6-7.7-15"/>
		<line class="st6" x1="572.9" y1="299" x2="572.9" y2="298"/>
		<line class="st6" x1="148.2" y1="361.4" x2="146.7" y2="360.5"/>
		<line class="st6" x1="202.4" y1="300.6" x2="202.4" y2="301.6"/>
		<line class="st6" x1="631.9" y1="359.9" x2="630.4" y2="360.8"/>
		<line class="st6" x1="336.4" y1="223.2" x2="336.4" y2="224.3"/>
		<line class="st6" x1="180.1" y1="298.7" x2="180.6" y2="299.4"/>
		<line class="st6" x1="180.6" y1="299.4" x2="180.6" y2="291.6"/>
		<line class="st6" x1="197.3" y1="289.7" x2="197.3" y2="282"/>
		<line class="st6" x1="180.6" y1="299.4" x2="197.3" y2="289.7"/>
		<line class="st6" x1="197.3" y1="295.9" x2="182.7" y2="304.4"/>
		<line class="st6" x1="180.9" y1="305.4" x2="180.9" y2="299.2"/>
		<line class="st6" x1="197.3" y1="289.7" x2="197.3" y2="295.9"/>
		<line class="st6" x1="133.3" y1="332.9" x2="166.6" y2="313.6"/>
		<line class="st6" x1="166.6" y1="313.6" x2="166.2" y2="313.4"/>
		<line class="st6" x1="604.1" y1="308.4" x2="604.5" y2="308.7"/>
		<line class="st6" x1="599.9" y1="306" x2="604.1" y2="308.4"/>
		<line class="st6" x1="594.3" y1="302.8" x2="597" y2="304.3"/>
		<line class="st6" x1="658.2" y1="339.7" x2="658.2" y2="339.7"/>
		<line class="st6" x1="314.9" y1="228" x2="319.2" y2="225.6"/>
		<line class="st6" x1="331.2" y1="218.6" x2="331.2" y2="218.6"/>
		<line class="st6" x1="180.9" y1="305.4" x2="185.2" y2="302.9"/>
		<line class="st6" x1="197.2" y1="296" x2="197.2" y2="296"/>
		<line class="st6" x1="165.8" y1="313.1" x2="165.6" y2="313"/>
		<line class="st6" x1="165.6" y1="313" x2="165.1" y2="313.3"/>
		<line class="st6" x1="145.9" y1="324.4" x2="133.3" y2="331.7"/>
		<path class="st6" d="M179.4,299.1c0.2-0.1,0.5-0.3,0.7-0.4"/>
		<line class="st6" x1="180.1" y1="298.7" x2="180.1" y2="291.9"/>
		<line class="st6" x1="179.4" y1="292.4" x2="179.4" y2="299.1"/>
		<line class="st6" x1="117" y1="342.3" x2="117" y2="343.4"/>
		<line class="st6" x1="117" y1="342.3" x2="197.2" y2="296"/>
		<line class="st6" x1="121" y1="344.6" x2="121" y2="345.7"/>
		<line class="st6" x1="121" y1="345.7" x2="117" y2="343.4"/>
		<line class="st6" x1="121" y1="344.6" x2="117" y2="342.3"/>
		<path class="st6" d="M202.4,301.6c0,2.4-7.7,6.2-9,6.9c-3.4,2-6.8,3.9-10.2,5.9c-6.8,3.9-13.6,7.9-20.4,11.8
			c-6.8,3.9-13.6,7.9-20.4,11.8c-3.4,2-6.8,3.9-10.2,5.9c-3.7,2.1-6.8,3.4-11.2,1.8"/>
		<path class="st6" d="M201.2,298.3c4.4,3.9-2.9,6.3-5.9,8c-3.5,2-7,4-10.5,6.1c-7,4-14,8.1-21,12.1c-7,4-14,8.1-21,12.1
			c-3.5,2-7,4-10.5,6.1c-3.8,2.2-6.9,3.7-11.4,2"/>
		<line class="st6" x1="197.2" y1="296" x2="201.2" y2="298.3"/>
		<line class="st6" x1="167.1" y1="307.5" x2="180.3" y2="299.9"/>
		<line class="st6" x1="180.3" y1="299.9" x2="180.2" y2="305.7"/>
		<line class="st6" x1="180.2" y1="305.7" x2="167.1" y2="313.3"/>
		<line class="st6" x1="167.1" y1="313.3" x2="167.1" y2="307.5"/>
		<line class="st6" x1="106.6" y1="335.9" x2="114.3" y2="340.3"/>
		<line class="st6" x1="106.6" y1="335.9" x2="106.6" y2="313.1"/>
		<line class="st6" x1="117" y1="319.1" x2="125" y2="323.7"/>
		<line class="st6" x1="125" y1="323.7" x2="205.4" y2="277.3"/>
		<line class="st6" x1="125" y1="323.7" x2="125" y2="312.3"/>
		<line class="st6" x1="205.4" y1="266" x2="205.4" y2="277.3"/>
		<line class="st6" x1="197.3" y1="283.5" x2="200.6" y2="281.7"/>
		<line class="st6" x1="200.6" y1="281.7" x2="211.3" y2="287.8"/>
		<line class="st6" x1="211.3" y1="287.8" x2="197.3" y2="295.9"/>
		<line class="st6" x1="200.6" y1="280.1" x2="200.6" y2="281.7"/>
		<line class="st6" x1="157.8" y1="222.3" x2="157.8" y2="222.2"/>
		<line class="st6" x1="157.8" y1="222.2" x2="157.9" y2="222.3"/>
		<line class="st6" x1="211.8" y1="322.9" x2="211.8" y2="318.3"/>
		<line class="st6" x1="211.8" y1="318.3" x2="117.6" y2="372.7"/>
		<line class="st6" x1="117.6" y1="372.7" x2="117.6" y2="377.4"/>
		<line class="st6" x1="117.6" y1="377.4" x2="211.8" y2="322.9"/>
		<line class="st6" x1="211.3" y1="318" x2="211.8" y2="318.3"/>
		<line class="st6" x1="211.3" y1="318" x2="117" y2="372.4"/>
		<line class="st6" x1="117" y1="372.4" x2="117.6" y2="372.7"/>
		<line class="st6" x1="117" y1="372.4" x2="117" y2="377"/>
		<line class="st6" x1="117" y1="377" x2="117.6" y2="377.4"/>
		<line class="st6" x1="106.3" y1="366.8" x2="106.3" y2="369.1"/>
		<line class="st6" x1="106.3" y1="369.1" x2="117" y2="375.3"/>
		<line class="st6" x1="117" y1="373" x2="106.3" y2="366.8"/>
		<line class="st6" x1="106.3" y1="369.1" x2="99.6" y2="373"/>
		<line class="st6" x1="99.6" y1="373" x2="99.6" y2="370.6"/>
		<line class="st6" x1="99.6" y1="370.6" x2="106.3" y2="366.8"/>
		<line class="st6" x1="67.5" y1="352.1" x2="67.5" y2="354.4"/>
		<line class="st6" x1="67.5" y1="354.4" x2="99.6" y2="373"/>
		<line class="st6" x1="99.6" y1="370.6" x2="67.5" y2="352.1"/>
		<line class="st6" x1="74.1" y1="348.2" x2="63.5" y2="342.1"/>
		<line class="st6" x1="63.5" y1="342.1" x2="63.5" y2="344.4"/>
		<line class="st6" x1="63.5" y1="344.4" x2="72.1" y2="349.3"/>
		<line class="st6" x1="64.6" y1="345" x2="63.5" y2="345.7"/>
		<line class="st6" x1="63.1" y1="345.9" x2="63.1" y2="341.3"/>
		<line class="st6" x1="63.1" y1="341.3" x2="63.5" y2="341.1"/>
		<line class="st6" x1="65" y1="345.3" x2="63.5" y2="346.1"/>
		<line class="st6" x1="63.5" y1="346.1" x2="63.1" y2="345.9"/>
		<line class="st6" x1="63.5" y1="346.1" x2="63.5" y2="344.4"/>
		<line class="st6" x1="63.5" y1="342.1" x2="63.5" y2="341.5"/>
		<line class="st6" x1="63.5" y1="341.5" x2="63.1" y2="341.3"/>
		<line class="st6" x1="198.5" y1="296.7" x2="208.5" y2="290.9"/>
		<line class="st6" x1="208.5" y1="290.9" x2="209.3" y2="289.2"/>
		<line class="st6" x1="209.3" y1="289.2" x2="197.4" y2="296"/>
		<line class="st6" x1="208.5" y1="295.8" x2="209.3" y2="295.7"/>
		<line class="st6" x1="209.3" y1="295.7" x2="209.3" y2="289.2"/>
		<line class="st6" x1="208.5" y1="290.9" x2="208.5" y2="295.8"/>
		<line class="st6" x1="211.3" y1="318" x2="211.3" y2="287.8"/>
		<line class="st6" x1="197.3" y1="295.9" x2="197.2" y2="296"/>
		<line class="st6" x1="180.9" y1="305.4" x2="167.1" y2="313.3"/>
		<line class="st6" x1="117" y1="343.4" x2="117" y2="372.4"/>
		<line class="st6" x1="209.3" y1="295.7" x2="202.3" y2="299.8"/>
		<line class="st6" x1="202.2" y1="299.5" x2="208.5" y2="295.8"/>
		<line class="st6" x1="165.8" y1="307" x2="165.8" y2="313.1"/>
		<line class="st6" x1="664.3" y1="317.9" x2="668.3" y2="315.6"/>
		<line class="st6" x1="664.3" y1="317.7" x2="664.3" y2="317.9"/>
		<line class="st6" x1="559.3" y1="257.3" x2="664.3" y2="317.9"/>
		<line class="st6" x1="559.3" y1="257.1" x2="559.3" y2="257.3"/>
		<line class="st6" x1="668.3" y1="315.4" x2="668.3" y2="315.6"/>
		<line class="st6" x1="729.8" y1="284.7" x2="668.3" y2="315.6"/>
		<line class="st6" x1="729.8" y1="284.6" x2="729.8" y2="284.7"/>
		<line class="st6" x1="631.5" y1="227.8" x2="725.7" y2="282.2"/>
		<path class="st6" d="M630.6,360.6c-0.1,0.1-0.2,0.1-0.2,0.2"/>
		<path class="st6" d="M630.9,360.5c-0.4,0.3-0.8,0.6-1.3,0.7"/>
		<path class="st6" d="M631.5,359.7c-0.1,0.1-0.2,0.2-0.2,0.3"/>
		<line class="st6" x1="715.1" y1="323.1" x2="715.1" y2="353.2"/>
		<line class="st6" x1="715.1" y1="353.9" x2="715" y2="356.2"/>
		<line class="st6" x1="715" y1="356.2" x2="715" y2="353.9"/>
		<line class="st6" x1="672.3" y1="380.8" x2="715" y2="356.2"/>
		<line class="st6" x1="715.1" y1="323.1" x2="715.1" y2="353.2"/>
		<line class="st6" x1="715.1" y1="353.2" x2="672.3" y2="377.9"/>
		<line class="st6" x1="715.1" y1="353.9" x2="715.1" y2="353.2"/>
		<line class="st6" x1="672.3" y1="378.6" x2="715.1" y2="353.9"/>
		<line class="st6" x1="631.5" y1="227.8" x2="631.5" y2="227.8"/>
		<line class="st6" x1="597.8" y1="304.8" x2="641.9" y2="330.3"/>
		<line class="st6" x1="578" y1="279.5" x2="578" y2="293.4"/>
		<line class="st6" x1="580" y1="294.5" x2="580" y2="280.6"/>
		<line class="st6" x1="580.9" y1="294.5" x2="580" y2="294.5"/>
		<line class="st6" x1="594.3" y1="302.8" x2="594.3" y2="288.9"/>
		<line class="st6" x1="593.6" y1="301.8" x2="594.3" y2="302.8"/>
		<line class="st6" x1="628.5" y1="315.4" x2="641.6" y2="323"/>
		<line class="st6" x1="641.3" y1="324.1" x2="641.3" y2="329.9"/>
		<line class="st6" x1="641.6" y1="323.9" x2="627.7" y2="315.9"/>
		<line class="st6" x1="641.3" y1="324.1" x2="642" y2="324.1"/>
		<line class="st6" x1="628.2" y1="316.5" x2="627.7" y2="315.9"/>
		<line class="st6" x1="627.7" y1="322.1" x2="628.2" y2="322.3"/>
		<line class="st6" x1="627.7" y1="315.9" x2="627.7" y2="322.1"/>
		<line class="st6" x1="627.7" y1="315.9" x2="628.5" y2="315.4"/>
		<line class="st6" x1="595.3" y1="289.5" x2="595.3" y2="302.2"/>
		<line class="st6" x1="658.8" y1="346.4" x2="669.5" y2="352.6"/>
		<line class="st6" x1="670.3" y1="353.4" x2="658.2" y2="346.4"/>
		<line class="st6" x1="578" y1="303.7" x2="578" y2="323.5"/>
		<line class="st6" x1="641.9" y1="330.3" x2="628.2" y2="322.3"/>
		<line class="st6" x1="658.4" y1="339.8" x2="653.5" y2="337"/>
		<line class="st6" x1="672.3" y1="377.9" x2="672.3" y2="347.8"/>
		<line class="st6" x1="669.5" y1="347.6" x2="669.5" y2="352.6"/>
		<line class="st6" x1="670.3" y1="353.4" x2="670.3" y2="346.8"/>
		<line class="st6" x1="669.5" y1="352.6" x2="670.3" y2="353.4"/>
		<line class="st6" x1="670.3" y1="346.8" x2="658.2" y2="339.9"/>
		<line class="st6" x1="669.5" y1="347.6" x2="670.3" y2="346.8"/>
		<line class="st6" x1="658.8" y1="341.5" x2="658.8" y2="346.4"/>
		<line class="st6" x1="658.2" y1="339.9" x2="658.8" y2="341.5"/>
		<line class="st6" x1="658.2" y1="346.4" x2="658.2" y2="339.9"/>
		<line class="st6" x1="658.8" y1="346.4" x2="658.2" y2="346.4"/>
		<line class="st6" x1="658.8" y1="341.5" x2="669.5" y2="347.6"/>
		<line class="st6" x1="578" y1="323.5" x2="577.4" y2="323.8"/>
		<line class="st6" x1="672.3" y1="377.9" x2="578" y2="323.5"/>
		<line class="st6" x1="672.3" y1="377.9" x2="671.7" y2="378.3"/>
		<line class="st6" x1="672.3" y1="382.6" x2="672.3" y2="377.9"/>
		<line class="st6" x1="671.7" y1="382.9" x2="672.3" y2="382.6"/>
		<line class="st6" x1="165.8" y1="313.1" x2="166.2" y2="313.4"/>
		<line class="st6" x1="166.6" y1="307.4" x2="165.8" y2="307"/>
		<line class="st6" x1="166.6" y1="307.4" x2="166.6" y2="313.6"/>
		<line class="st6" x1="166.6" y1="313.6" x2="167.1" y2="313.3"/>
		<line class="st6" x1="167.1" y1="307.5" x2="166.6" y2="307.4"/>
		<line class="st6" x1="180.3" y1="299.9" x2="180.9" y2="299.2"/>
		<line class="st6" x1="577.4" y1="328.5" x2="671.7" y2="382.9"/>
		<line class="st6" x1="577.4" y1="323.8" x2="577.4" y2="328.5"/>
		<line class="st6" x1="671.7" y1="378.3" x2="577.4" y2="323.8"/>
		<line class="st6" x1="671.7" y1="382.9" x2="671.7" y2="378.3"/>
		<line class="st6" x1="725.8" y1="282.2" x2="725.8" y2="282.2"/>
		<line class="st6" x1="725.8" y1="316.9" x2="725.8" y2="286.7"/>
		<line class="st6" x1="683" y1="341.6" x2="725.8" y2="316.9"/>
		<line class="st6" x1="683" y1="308.2" x2="683" y2="341.6"/>
		<line class="st6" x1="669.1" y1="333.6" x2="669.1" y2="315.2"/>
		<line class="st6" x1="672.3" y1="347.8" x2="658.4" y2="339.8"/>
		<line class="st6" x1="683" y1="341.6" x2="672.3" y2="347.8"/>
		<line class="st6" x1="669.1" y1="333.6" x2="683" y2="341.6"/>
		<line class="st6" x1="658.4" y1="339.8" x2="669.1" y2="333.6"/>
		<line class="st6" x1="650.4" y1="309.9" x2="650.4" y2="321.3"/>
		<line class="st6" x1="570" y1="274.9" x2="570" y2="263.5"/>
		<line class="st6" x1="570" y1="274.9" x2="650.4" y2="321.3"/>
		<line class="st6" x1="650.4" y1="321.3" x2="658.4" y2="316.6"/>
		<line class="st6" x1="628.2" y1="322.3" x2="628.2" y2="316.5"/>
		<line class="st6" x1="641.3" y1="329.8" x2="628.2" y2="322.3"/>
		<line class="st6" x1="628.2" y1="316.5" x2="641.3" y2="324.1"/>
		<line class="st6" x1="658.2" y1="340.8" x2="654.2" y2="343.1"/>
		<line class="st6" x1="658.2" y1="339.7" x2="658.2" y2="340.8"/>
		<line class="st6" x1="658.2" y1="339.7" x2="654.2" y2="342"/>
		<path class="st6" d="M654.2,342c-4.5,1.7-7.7,0.2-11.4-2c-3.5-2-7-4-10.5-6.1c-7-4-14-8.1-21-12.1c-7-4-14-8.1-21-12.1
			c-3.5-2-7-4-10.5-6.1c-3-1.7-10.3-4.1-5.9-8"/>
		<path class="st6" d="M654.2,343.1c-4.4,1.6-7.5,0.3-11.2-1.8c-3.4-2-6.8-3.9-10.2-5.9c-6.8-3.9-13.6-7.9-20.4-11.8
			c-6.8-3.9-13.6-7.9-20.4-11.8c-3.4-2-6.8-3.9-10.2-5.9c-1.3-0.8-9-4.5-9-6.9"/>
		<line class="st6" x1="654.2" y1="342" x2="654.2" y2="343.1"/>
		<line class="st6" x1="574" y1="295.7" x2="578" y2="293.4"/>
		<line class="st6" x1="578" y1="293.4" x2="658.2" y2="339.7"/>
		<line class="st6" x1="180.6" y1="299.4" x2="166.6" y2="307.4"/>
		<line class="st6" x1="180.3" y1="305.7" x2="180.2" y2="305.7"/>
		<line class="st6" x1="180.3" y1="299.9" x2="180.3" y2="305.7"/>
		<line class="st6" x1="180.9" y1="299.2" x2="180.9" y2="301.1"/>
		<line class="st6" x1="608.9" y1="310.1" x2="595.3" y2="302.2"/>
		<line class="st6" x1="595.4" y1="303.4" x2="627.7" y2="322.1"/>
		<line class="st6" x1="595.3" y1="302.2" x2="594.3" y2="302.8"/>
		<line class="st6" x1="658.4" y1="333.6" x2="658.4" y2="339.8"/>
		<line class="st6" x1="641.9" y1="330.3" x2="642" y2="324.1"/>
		<line class="st6" x1="658.4" y1="339.8" x2="641.9" y2="330.3"/>
		<line class="st6" x1="641.6" y1="323.9" x2="658.4" y2="333.6"/>
		<line class="st6" x1="658.4" y1="333.6" x2="658.4" y2="316.6"/>
		<line class="st6" x1="641.6" y1="323.9" x2="641.6" y2="316.2"/>
		<line class="st6" x1="361.3" y1="175.8" x2="361.3" y2="175.9"/>
		<line class="st6" x1="256.3" y1="236.6" x2="361.3" y2="175.9"/>
		<line class="st6" x1="256.3" y1="236.4" x2="256.3" y2="236.6"/>
		<line class="st6" x1="252.3" y1="234.2" x2="256.3" y2="236.6"/>
		<line class="st6" x1="190.8" y1="203.2" x2="190.8" y2="203.4"/>
		<line class="st6" x1="252.3" y1="234.2" x2="252.3" y2="234.1"/>
		<line class="st6" x1="252.3" y1="234.2" x2="190.8" y2="203.4"/>
		<line class="st6" x1="197.5" y1="199.3" x2="291.8" y2="144.9"/>
		<path class="st6" d="M293.4,275.8c-0.1,0.2-0.2,0.4-0.2,0.6"/>
		<line class="st6" x1="197.5" y1="206.7" x2="197.5" y2="237.9"/>
		<line class="st6" x1="197.5" y1="199.3" x2="197.5" y2="199.3"/>
		<line class="st6" x1="197.7" y1="199.4" x2="197.5" y2="199.3"/>
		<line class="st6" x1="214.9" y1="274.4" x2="233.6" y2="285"/>
		<line class="st6" x1="216.5" y1="273.3" x2="215.1" y2="274.3"/>
		<line class="st6" x1="248.3" y1="240.2" x2="240.3" y2="235.6"/>
		<line class="st6" x1="248.3" y1="240.2" x2="248.3" y2="263.4"/>
		<line class="st6" x1="248.3" y1="263.4" x2="240.3" y2="258.7"/>
		<line class="st6" x1="240.3" y1="258.7" x2="248.3" y2="263"/>
		<line class="st6" x1="240.4" y1="258.7" x2="240.6" y2="258.5"/>
		<line class="st6" x1="240.3" y1="235.6" x2="240.3" y2="258.7"/>
		<line class="st6" x1="208.2" y1="270.3" x2="240.3" y2="288.8"/>
		<line class="st6" x1="240.3" y1="289.3" x2="208.2" y2="270.8"/>
		<line class="st6" x1="240.3" y1="288.8" x2="251" y2="295"/>
		<line class="st6" x1="240.3" y1="289.3" x2="240.3" y2="288.8"/>
		<line class="st6" x1="240.3" y1="289.3" x2="233.6" y2="293.1"/>
		<line class="st6" x1="240.3" y1="289.4" x2="240.3" y2="289.3"/>
		<line class="st6" x1="233.6" y1="293.1" x2="205.4" y2="276.8"/>
		<line class="st6" x1="233.6" y1="293.3" x2="233.6" y2="293.1"/>
		<line class="st6" x1="205.4" y1="272.4" x2="208.2" y2="270.8"/>
		<line class="st6" x1="208.2" y1="270.3" x2="205.4" y2="268.7"/>
		<line class="st6" x1="208.2" y1="270.8" x2="208.2" y2="270.3"/>
		<line class="st6" x1="251" y1="241.8" x2="251" y2="264.9"/>
		<line class="st6" x1="253" y1="263.8" x2="253" y2="242.9"/>
		<line class="st6" x1="253.8" y1="262.7" x2="253" y2="263.8"/>
		<line class="st6" x1="267.3" y1="255.5" x2="267.3" y2="241.6"/>
		<line class="st6" x1="266.6" y1="255.4" x2="267.3" y2="255.5"/>
		<line class="st6" x1="299.8" y1="229.6" x2="313.4" y2="221.8"/>
		<line class="st6" x1="314.9" y1="221.8" x2="314.9" y2="223.8"/>
		<line class="st6" x1="314.3" y1="222.5" x2="314.3" y2="228.4"/>
		<line class="st6" x1="314.3" y1="228.4" x2="314.2" y2="228.3"/>
		<line class="st6" x1="314.6" y1="222" x2="300.6" y2="230.1"/>
		<line class="st6" x1="314.3" y1="222.5" x2="314.9" y2="221.8"/>
		<line class="st6" x1="301.1" y1="230.1" x2="300.6" y2="230.1"/>
		<line class="st6" x1="300.6" y1="236.3" x2="300.9" y2="236.1"/>
		<line class="st6" x1="300.6" y1="230.1" x2="300.6" y2="236.3"/>
		<line class="st6" x1="300.6" y1="230.1" x2="299.8" y2="229.6"/>
		<line class="st6" x1="299.8" y1="235.8" x2="300.2" y2="236"/>
		<line class="st6" x1="299.8" y1="229.6" x2="299.8" y2="235.8"/>
		<line class="st6" x1="336.1" y1="222.1" x2="342.5" y2="218.5"/>
		<line class="st6" x1="343.2" y1="218.4" x2="336.2" y2="222.4"/>
		<line class="st6" x1="251" y1="266" x2="251" y2="295"/>
		<line class="st6" x1="314.9" y1="228" x2="300.9" y2="236.1"/>
		<line class="st6" x1="331.3" y1="218.5" x2="331.2" y2="218.6"/>
		<line class="st6" x1="345.3" y1="240.6" x2="345.3" y2="210.5"/>
		<line class="st6" x1="342.5" y1="213.5" x2="342.5" y2="218.5"/>
		<line class="st6" x1="343.2" y1="218.4" x2="343.2" y2="211.8"/>
		<line class="st6" x1="342.5" y1="218.5" x2="343.2" y2="218.4"/>
		<line class="st6" x1="343.2" y1="211.8" x2="331.4" y2="218.7"/>
		<line class="st6" x1="342.5" y1="213.5" x2="343.2" y2="211.8"/>
		<line class="st6" x1="332.4" y1="219.3" x2="342.5" y2="213.5"/>
		<line class="st6" x1="205.4" y1="271.6" x2="206.1" y2="272"/>
		<line class="st6" x1="208.1" y1="270.8" x2="205.4" y2="269.3"/>
		<line class="st6" x1="233.6" y1="293.3" x2="205.4" y2="277"/>
		<line class="st6" x1="203.7" y1="278.3" x2="233.6" y2="295.6"/>
		<line class="st6" x1="233.6" y1="293.3" x2="240.3" y2="289.4"/>
		<line class="st6" x1="233.6" y1="295.6" x2="233.6" y2="293.3"/>
		<line class="st6" x1="240.3" y1="291.7" x2="233.6" y2="295.6"/>
		<line class="st6" x1="251" y1="295.6" x2="240.3" y2="289.4"/>
		<line class="st6" x1="240.3" y1="291.7" x2="251" y2="297.9"/>
		<line class="st6" x1="240.3" y1="289.4" x2="240.3" y2="291.7"/>
		<line class="st6" x1="251" y1="299.7" x2="251.6" y2="300"/>
		<line class="st6" x1="251" y1="295" x2="251" y2="299.7"/>
		<line class="st6" x1="251" y1="295" x2="251.6" y2="295.4"/>
		<line class="st6" x1="345.3" y1="240.6" x2="251" y2="295"/>
		<line class="st6" x1="345.3" y1="240.6" x2="345.8" y2="240.9"/>
		<line class="st6" x1="165.8" y1="307" x2="179.4" y2="299.1"/>
		<line class="st6" x1="132.6" y1="332.7" x2="133.3" y2="332.9"/>
		<line class="st6" x1="133.3" y1="332.9" x2="133.3" y2="319"/>
		<line class="st6" x1="119.8" y1="340.1" x2="119" y2="341.1"/>
		<line class="st6" x1="119" y1="341.1" x2="119" y2="320.3"/>
		<line class="st6" x1="117" y1="319.1" x2="117" y2="342.3"/>
		<line class="st6" x1="251.6" y1="300" x2="345.8" y2="245.6"/>
		<line class="st6" x1="251.6" y1="295.4" x2="251.6" y2="300"/>
		<line class="st6" x1="345.8" y1="240.9" x2="251.6" y2="295.4"/>
		<line class="st6" x1="345.8" y1="245.6" x2="345.8" y2="240.9"/>
		<line class="st6" x1="291.8" y1="144.9" x2="291.9" y2="145"/>
		<line class="st6" x1="291.8" y1="144.9" x2="291.8" y2="144.9"/>
		<line class="st6" x1="334.6" y1="202.8" x2="334.6" y2="204.3"/>
		<line class="st6" x1="345.3" y1="210.5" x2="331.3" y2="218.5"/>
		<line class="st6" x1="334.6" y1="204.3" x2="345.3" y2="210.5"/>
		<line class="st6" x1="331.3" y1="206.2" x2="334.6" y2="204.3"/>
		<line class="st6" x1="339.4" y1="188.6" x2="339.4" y2="200"/>
		<line class="st6" x1="259" y1="246.4" x2="259" y2="235"/>
		<line class="st6" x1="259" y1="246.4" x2="339.4" y2="200"/>
		<line class="st6" x1="251" y1="241.8" x2="259" y2="246.4"/>
		<line class="st6" x1="240.6" y1="258.5" x2="240.6" y2="235.8"/>
		<line class="st6" x1="240.6" y1="258.5" x2="248.3" y2="263"/>
		<line class="st6" x1="301.1" y1="236" x2="301.1" y2="230.1"/>
		<line class="st6" x1="314.2" y1="228.3" x2="301.1" y2="236"/>
		<line class="st6" x1="314.3" y1="222.5" x2="314.2" y2="228.3"/>
		<line class="st6" x1="301.1" y1="230.1" x2="314.3" y2="222.5"/>
		<line class="st6" x1="331.2" y1="218.6" x2="335.2" y2="220.9"/>
		<path class="st6" d="M335.2,220.9c4.4,3.9-2.9,6.3-5.9,8c-3.5,2-7,4-10.5,6.1c-7,4-14,8.1-21,12.1c-7,4-14,8.1-21,12.1
			c-3.5,2-7,4-10.5,6.1c-3.8,2.2-6.9,3.7-11.4,2"/>
		<path class="st6" d="M336.4,224.3c0,2.4-7.7,6.2-9,6.9c-3.4,2-6.8,3.9-10.2,5.9c-6.8,3.9-13.6,7.9-20.4,11.8
			c-6.8,3.9-13.6,7.9-20.4,11.8c-3.4,2-6.8,3.9-10.2,5.9c-3.7,2.1-6.8,3.4-11.2,1.8"/>
		<line class="st6" x1="255" y1="267.2" x2="251" y2="264.9"/>
		<line class="st6" x1="255" y1="268.3" x2="251" y2="266"/>
		<line class="st6" x1="255" y1="267.2" x2="255" y2="268.3"/>
		<line class="st6" x1="251" y1="264.9" x2="331.2" y2="218.6"/>
		<line class="st6" x1="251" y1="264.9" x2="251" y2="266"/>
		<line class="st6" x1="74.2" y1="348.1" x2="74.2" y2="347.7"/>
		<line class="st6" x1="74.2" y1="347.7" x2="63.5" y2="341.5"/>
		<line class="st6" x1="67.5" y1="352.1" x2="67.5" y2="352"/>
		<line class="st6" x1="67.5" y1="352" x2="74.2" y2="348.1"/>
		<line class="st6" x1="313.4" y1="215" x2="313.4" y2="221.8"/>
		<line class="st6" x1="314.1" y1="221.3" x2="314.1" y2="214.6"/>
		<path class="st6" d="M313.4,221.8c0.2-0.1,0.5-0.3,0.7-0.4"/>
		<line class="st6" x1="279.9" y1="247.1" x2="267.3" y2="254.3"/>
		<line class="st6" x1="299.6" y1="235.7" x2="299.1" y2="236"/>
		<line class="st6" x1="299.8" y1="235.8" x2="299.6" y2="235.7"/>
		<line class="st6" x1="300.6" y1="236.3" x2="300.2" y2="236"/>
		<line class="st6" x1="267.3" y1="255.5" x2="300.6" y2="236.3"/>
		<line class="st6" x1="331.3" y1="212.3" x2="331.3" y2="218.5"/>
		<line class="st6" x1="314.9" y1="228" x2="314.9" y2="221.8"/>
		<line class="st6" x1="331.3" y1="218.5" x2="316.7" y2="227"/>
		<line class="st6" x1="314.6" y1="222" x2="331.3" y2="212.3"/>
		<line class="st6" x1="331.3" y1="212.3" x2="331.3" y2="204.6"/>
		<line class="st6" x1="314.6" y1="222" x2="314.6" y2="214.3"/>
		<line class="st6" x1="314.1" y1="221.3" x2="314.6" y2="222"/>
		<line class="st6" x1="227.3" y1="253.1" x2="227.3" y2="253.3"/>
		<line class="st6" x1="122.3" y1="313.9" x2="227.3" y2="253.3"/>
		<line class="st6" x1="122.3" y1="313.8" x2="122.3" y2="313.9"/>
		<line class="st6" x1="118.3" y1="311.6" x2="122.3" y2="313.9"/>
		<line class="st6" x1="56.8" y1="280.6" x2="56.8" y2="280.7"/>
		<line class="st6" x1="118.3" y1="311.6" x2="118.3" y2="311.5"/>
		<line class="st6" x1="118.3" y1="311.6" x2="56.8" y2="280.7"/>
		<line class="st6" x1="63.5" y1="276.7" x2="157.8" y2="222.3"/>
		<path class="st6" d="M148.2,361.4c-0.1,0-0.2-0.1-0.2-0.2"/>
		<path class="st6" d="M148.8,361.7c-0.7-0.3-1.3-0.7-1.7-1.4"/>
		<path class="st6" d="M159.4,353.2c-0.1,0.2-0.2,0.4-0.2,0.6"/>
		<line class="st6" x1="63.5" y1="284.1" x2="63.5" y2="341.5"/>
		<line class="st6" x1="63.5" y1="276.6" x2="63.5" y2="276.7"/>
		<line class="st6" x1="63.7" y1="276.7" x2="63.5" y2="276.6"/>
		<line class="st6" x1="80.9" y1="351.8" x2="99.6" y2="362.3"/>
		<line class="st6" x1="114.3" y1="317.6" x2="106.3" y2="312.9"/>
		<line class="st6" x1="114.3" y1="317.6" x2="114.3" y2="340.7"/>
		<line class="st6" x1="114.3" y1="340.7" x2="106.3" y2="336.1"/>
		<line class="st6" x1="106.3" y1="336" x2="114.3" y2="340.4"/>
		<line class="st6" x1="106.4" y1="336.1" x2="106.6" y2="335.9"/>
		<line class="st6" x1="106.3" y1="312.9" x2="106.3" y2="336.1"/>
		<line class="st6" x1="74.2" y1="347.7" x2="106.3" y2="366.2"/>
		<line class="st6" x1="106.3" y1="366.6" x2="74.2" y2="348.1"/>
		<line class="st6" x1="106.3" y1="366.2" x2="117" y2="372.4"/>
		<line class="st6" x1="106.3" y1="366.6" x2="106.3" y2="366.2"/>
		<line class="st6" x1="106.3" y1="366.6" x2="99.6" y2="370.5"/>
		<line class="st6" x1="106.3" y1="366.8" x2="106.3" y2="366.6"/>
		<line class="st6" x1="99.6" y1="370.5" x2="67.5" y2="352"/>
		<line class="st6" x1="99.6" y1="370.6" x2="99.6" y2="370.5"/>
	</g>
	<g id="door" class="st1">
		<polyline class="st6" points="99,360.2 99,307 99.6,306.8 99.6,362.3 		"/>
		<polyline class="st6" points="81.1,351.6 82.5,350.7 82.5,297.5 80.9,296 80.9,351.5 		"/>
		<polyline class="st6" points="80.9,351.5 82.5,350.7 99,360.2 99.6,362.3 		"/>
		<polygon class="st6" points="82.5,297.5 80.9,296 99.6,306.8 99,307 		"/>
		<polyline class="st6" points="233,282.9 233,229.6 233.6,229.4 233.6,285 		"/>
		<polyline class="st6" points="214.9,274.2 216.5,273.3 233,282.9 233.6,285 		"/>
		<polygon class="st6" points="216.5,220.1 214.9,218.6 233.6,229.4 233,229.6 		"/>
		<polyline class="st6" points="216.5,247.4 216.5,220.1 214.9,218.6 214.9,246.6 		"/>
		<polyline class="st6" points="216.5,259.5 216.5,273.3 214.9,274.2 214.9,260.5 		"/>
		<path class="st6" d="M414.7,176.9l-28.8-16.6v53.8c5.5,4.1,10.1,12.2,10.1,19.3l18.7,10.8V176.9z"/>
	</g>
	<g id="windows" class="st1">
		<line class="st7" x1="299.1" y1="230.4" x2="299.8" y2="230"/>
		<line class="st7" x1="299.1" y1="223.2" x2="299.1" y2="230.4"/>
		<line class="st7" x1="299.1" y1="236" x2="299.1" y2="230.4"/>
		<line class="st7" x1="279.9" y1="234.3" x2="279.9" y2="247.1"/>
		<line class="st7" x1="315.8" y1="213.6" x2="315.8" y2="220.5"/>
		<line class="st7" x1="315.8" y1="220.5" x2="328.6" y2="213.1"/>
		<line class="st7" x1="328.6" y1="213.1" x2="328.6" y2="206.2"/>
		<line class="st7" x1="253.8" y1="243.4" x2="253.8" y2="262.7"/>
		<line class="st7" x1="253.8" y1="262.7" x2="266.6" y2="255.4"/>
		<line class="st7" x1="266.6" y1="255.4" x2="266.6" y2="242"/>
		<line class="st7" x1="627.8" y1="315.4" x2="628.1" y2="315.6"/>
		<line class="st7" x1="627.8" y1="308.2" x2="627.8" y2="315.4"/>
		<line class="st7" x1="627.8" y1="315.8" x2="627.8" y2="315.4"/>
		<line class="st7" x1="608.8" y1="297.3" x2="608.9" y2="310.1"/>
		<line class="st7" x1="642.8" y1="316.9" x2="642.8" y2="323.8"/>
		<line class="st7" x1="642.8" y1="323.8" x2="655.6" y2="331.2"/>
		<line class="st7" x1="655.6" y1="331.2" x2="655.6" y2="318.2"/>
		<line class="st7" x1="580.9" y1="281.1" x2="580.9" y2="294.5"/>
		<line class="st7" x1="580.9" y1="294.5" x2="593.6" y2="301.8"/>
		<line class="st7" x1="593.6" y1="301.8" x2="593.6" y2="288.5"/>
		<line class="st7" x1="165.1" y1="300.6" x2="165.1" y2="307.8"/>
		<line class="st7" x1="165.1" y1="313.3" x2="165.1" y2="307.8"/>
		<line class="st7" x1="146" y1="311.6" x2="145.9" y2="324.4"/>
		<line class="st7" x1="181.8" y1="291" x2="181.8" y2="297.9"/>
		<line class="st7" x1="181.8" y1="297.9" x2="194.6" y2="290.4"/>
		<line class="st7" x1="194.6" y1="290.4" x2="194.6" y2="283.6"/>
		<line class="st7" x1="119.8" y1="320.8" x2="119.8" y2="340.1"/>
		<line class="st7" x1="119.8" y1="340.1" x2="132.6" y2="332.7"/>
		<line class="st7" x1="132.6" y1="332.7" x2="132.6" y2="319.4"/>
		<line class="st7" x1="165.1" y1="307.8" x2="165.8" y2="307.4"/>
		<polygon class="st7" points="381.9,163.3 384.4,164.7 384.4,193.6 373.2,187.2 		"/>
		<polygon class="st7" points="386.7,195 386.7,166.1 408.7,178.8 408.7,207.7 		"/>
	</g>
	<g id="wheels" class="st1">
		<path class="st6" d="M392.9,232.5c-1.4,0.2-2.4-0.3-3.6-0.9"/>
		<path class="st6" d="M389.3,231.5c-4.3-2.5-9.6-10.8-6-15.7"/>
		<path class="st6" d="M393.5,231.2c-1.1,3.2-4.1,3.2-6.6,1.7"/>
		<path class="st6" d="M386.9,232.9c-3.8-2.2-5.5-5-6.6-9.1c-1.1-4.1-0.2-9.2,4.8-7.8"/>
		<path class="st6" d="M377.6,210.9c-4.1,3.7-2.4,11.2-0.7,15.2c2.2,5.3,4.9,9.3,10,12.2c3.9,2.3,8.8,2.7,10.9-2.1"/>
		<path class="st6" d="M509.1,299.5c-1.4,0.2-2.4-0.3-3.6-0.9"/>
		<path class="st6" d="M505.5,298.6c-4.3-2.5-9.6-10.8-6-15.7"/>
		<path class="st6" d="M509.8,298c-0.9,3.4-4,3.6-6.7,2"/>
		<path class="st6" d="M503.1,300c-3.8-2.2-5.5-5.1-6.6-9.2c-1.1-4.1-0.2-9.2,4.9-7.7"/>
		<path class="st6" d="M493.7,278.1c-4,3.7-2.3,11.2-0.7,15.1c2.2,5.3,4.9,9.2,10,12.2c3.9,2.2,8.7,2.7,10.9-2.1"/>
		<line class="st6" x1="515.3" y1="304" x2="511.6" y2="306.1"/>
		<line class="st6" x1="399.1" y1="236.9" x2="395.5" y2="239"/>
		<path class="st6" d="M626.7,356.9c-1.1-0.2-1.9-0.7-2.7-1.5"/>
		<path class="st6" d="M631.3,360c-2.1,2.5-5.4,0.9-7.4-0.7c-2.3-1.9-3.7-4-4.7-6.7"/>
		<path class="st6" d="M626.7,356.9c-1.1-0.2-1.9-0.7-2.6-1.5"/>
		<line class="st6" x1="282.2" y1="284.1" x2="280.7" y2="283.2"/>
		<path class="st6" d="M288.5,278.6c-0.8,0.8-1.5,1.4-2.7,1.5"/>
		<path class="st6" d="M293.4,275.8c-1,2.8-2.5,5-4.8,6.8c-2.1,1.7-5.5,3.1-7.5,0.3"/>
		<path class="st6" d="M282.2,284.1c-0.1,0-0.2-0.1-0.2-0.2"/>
		<path class="st6" d="M282.8,284.3c-0.7-0.3-1.3-0.7-1.7-1.4"/>
		<path class="st6" d="M288.5,278.7c-0.8,0.8-1.5,1.3-2.6,1.5"/>
		<path class="st6" d="M154.5,356c-0.8,0.8-1.5,1.4-2.7,1.5"/>
		<path class="st6" d="M159.4,353.2c-1,2.8-2.5,5-4.8,6.8c-2.1,1.7-5.5,3.1-7.5,0.3"/>
		<path class="st6" d="M154.5,356c-0.8,0.8-1.5,1.3-2.6,1.5"/>
	</g>
	<g id="SHADOW" class="st1">
		<g id="shadow">
			<polygon class="st8" points="678.6,386.8 672.3,380.8 672.3,347.8 683,341.6 683,330.3 664.3,317.7 725.8,282.2 725.8,298.1 
				767.6,322.3 723.5,359.7 			"/>
			<polygon class="st8" points="527.4,311.1 535.3,317.9 578,293.4 578,279.5 570,274.9 570,264.9 559.3,257.3 624.8,223.9 
				645.1,235.7 649.1,232.2 604.8,204.3 604.8,188.9 526.1,234.3 			"/>
			<polygon class="st8" points="381.9,193.2 383.4,227.4 354.1,249.5 259,305.4 240.3,291.7 233.6,295.6 203.7,278.3 205.4,277.3 
				205.3,266.4 218.6,259.5 251,276.1 251,266 255,268.3 259,269.5 264.7,267.3 333.9,227.3 336.4,224.3 336.1,222.1 331.9,218.4 
				251.6,264.6 251.6,242.1 259,242 259,235 342.9,186.6 354.1,188 369,186.7 			"/>
			<polygon class="st8" points="83.6,363.7 108.6,379.3 114.3,375.3 117.6,377.4 120.3,375.8 126.2,383.5 227.3,323.2 228.3,318.3 
				255.5,302.8 251,300.6 249.8,298.7 240.3,291.7 233.6,295.6 203.7,278.3 205.4,277.3 205.3,266.4 125,312.3 125,320.3 117,318 
				117.6,341.1 197.4,296 201.2,298.3 202.3,299.8 202.4,301.6 200.2,303.7 132.4,342.6 117.6,342.3 117,367.9 109,365.6 
				83.7,361.3 			"/>
		</g>
		<g id="shadow_white" class="st0">
			<polygon class="st9" points="678.6,386.8 672.3,380.8 672.3,347.8 683,341.6 683,330.3 664.3,317.7 725.8,282.2 725.8,298.1 
				767.6,322.3 723.5,359.7 			"/>
			<polygon class="st9" points="527.4,311.1 535.3,317.9 578,293.4 578,279.5 570,274.9 570,264.9 559.3,257.3 624.8,223.9 
				645.1,235.7 649.1,232.2 604.8,204.3 604.8,188.9 526.1,234.3 			"/>
			<polygon class="st9" points="381.9,193.2 383.4,227.4 354.1,249.5 259,305.4 240.3,291.7 233.6,295.6 203.7,278.3 205.4,277.3 
				205.3,266.4 218.6,259.5 251,276.1 251,266 255,268.3 259,269.5 264.7,267.3 333.9,227.3 336.4,224.3 336.1,222.1 331.9,218.4 
				251.6,264.6 251.6,242.1 259,242 259,235 342.9,186.6 354.1,188 369,186.7 			"/>
			<polygon class="st9" points="83.6,363.7 108.6,379.3 114.3,375.3 117.6,377.4 120.3,375.8 126.2,383.5 227.3,323.2 228.3,318.3 
				255.5,302.8 251,300.6 249.8,298.7 240.3,291.7 233.6,295.6 203.7,278.3 205.4,277.3 205.3,266.4 125,312.3 125,320.3 117,318 
				117.6,341.1 197.4,296 201.2,298.3 202.3,299.8 202.4,301.6 200.2,303.7 132.4,342.6 117.6,342.3 117,367.9 109,365.6 
				83.7,361.3 			"/>
		</g>
	</g>
</g>
<g id="scene">
	<g id="underlay">
		
			<image style="overflow:visible;" width="3300" height="2311" xlink:href="../img/foodtrucks_underlay.png"  transform="matrix(0.24 0 0 0.24 0 0)">
		</image>
	</g>
</g>
<g id="languages">
	<g id="Wolof">
		<polygon class="st10" points="559.3,257.1 664.3,317.7 668.3,315.4 563.3,254.8 		"/>
		<polyline class="st10" points="668.3,315.4 729.8,284.6 725.8,282.2 725.8,282.2 631.5,227.8 631.5,227.8 624.8,223.9 
			563.3,254.8 		"/>
		<g>
			<ellipse class="st11" cx="213.6" cy="352.4" rx="35.3" ry="15.9"/>
			<path class="st12" d="M224,356.7c-0.1,0-0.3,0-0.4,0c0-0.6,0.1-1.6-0.3-1.8c-0.1,0.1-0.3,0-0.5,0.1c-0.3,0.2-0.7,0.3-1,0.5
				c-0.6,0.4-1.2,0.9-1.8,1.3c-0.9,0.4-4.4-0.1-5-0.4c0-0.2,0-0.3,0-0.5c0.6-0.7,2.8-0.2,3.2-1.4c0-0.3-0.1-0.6-0.1-0.9
				c-0.2-1-0.3-2.1-0.5-3.1c-0.3-2-0.4-4.6-0.9-6.8c-0.1-1.2-0.2-2.4-0.3-3.6c-0.1-0.4-0.6-0.5-0.7-1.1c-0.3-1.1-0.6-4.1-1.2-4.7
				c-0.1,0.1-0.1,0-0.1,0.2c-0.3,0.3-0.5,1-0.7,1.4c-0.4,0.8-0.8,1.6-1.3,2.4c-0.2,0.6-0.4,1.2-0.6,1.8c-0.5,1.5-1.3,2.9-2,4.3
				c-0.1,0.3-0.2,0.7-0.2,1c-0.7,1.7-1.2,3.5-1.9,5c-0.4,0.9-0.8,1.9-1.2,2.8c-0.3,0.2-0.5,0.4-0.7,0.7c-0.2,0.4-0.5,1.5-0.9,1.5
				c-0.1,0-0.2-0.1-0.2-0.1c0.1-0.3,0.5-1.4,0.4-1.9c-0.1-0.2-0.2-0.1-0.2-0.3c-0.3,0.1-0.8-0.1-1.3,0c-0.8,0.1-1.8,0.7-2.6,0.6
				c-0.7-0.1-1.3-0.6-1.9-0.9c-0.5-0.2-1.5-0.7-1.4-1.3c0.9-0.3,2.9,0.8,3.5-0.3c0-0.1,0-0.1,0-0.2c-0.1-0.2-0.2-0.3-0.3-0.5
				c0.1-0.4,0.3-0.6,0.5-0.9c0.4-0.7,0.7-1.4,1.1-2c1.2-2.1,2.1-4.3,3.4-6.2c0.2-0.1,0.3-0.3,0.5-0.4c0.5-0.5,1-1.3,1.3-1.9
				c0.3-0.6-0.5-1.1-0.3-1.9c0.3-0.9,0.7-1.7,1-2.6c0.1-0.1,0.2-0.2,0.4-0.3c0-0.2,0.1-0.4,0.1-0.7c0.2-0.6,0.4-1.1,0.6-1.7
				c0.2-0.7,0.3-1.3,0.5-2c0.3-0.7,0.5-1.5,0.8-2.2c0.5-1.2,1-2.3,1.2-3.8c0.1-0.5-0.2-1-0.3-1.5c-0.2-1.8,0.1-3.6-0.7-5
				c-0.4,0-1.2,0.3-1.4,0.3c-1.1-0.3-2.6-2.1-2.1-3.6c0.2-0.6,0.6-0.7,1-1.2c0.1-0.3,0.3-0.6,0.4-0.9c0.3-0.4,0.7-0.7,1-1.1
				c0.2-0.4,0-1.1,0.2-1.5c0.1-0.3,0.3-0.7,0.4-1c0.2-0.7,0.2-1.2,0.4-1.7c0.2-0.4,0.5-0.8,0.7-1.2c0.4-1,0.9-3.4,0.1-4
				c-0.6-0.2-1.1,0-1.5-0.4c0-0.5,0-0.5-0.1-0.9c0.1,0,0.1-0.1,0.2-0.2c-0.1-0.1-0.3-0.2-0.4-0.4c0.1-0.1,0.1-0.3,0.1-0.4
				c-0.2-0.1-0.4-0.2-0.5-0.3c0-0.1,0-0.2,0-0.3c0.2-0.5,0.7-0.8,0.7-1.4c0.1-0.7-0.8-2.4-0.3-3c0.3-0.4,0.5-0.2,1-0.4
				c0.4-0.1,0.7-0.6,1.2-0.7c0.4-0.1,0.7,0,1.1-0.1c0.2,0,0.2,0,0.4,0c0.5-0.1,0.9-0.5,1.6-0.6c1.3-0.2,2.5,1.2,3,1.9
				c0.9,1.5,1,3.8,1.4,5.8c0.2,1,0,2.3,0.5,3c0.2-0.1,0.3-0.1,0.5-0.2c0.1,0.1,0.2,0.2,0.3,0c0.1,0,0.1,0,0.2-0.1c0,0,0,0,0,0
				c-0.2,0.2-0.4,0.4-0.6,0.6c0,0,0,0.1,0,0.1c0.2,0,0.1,0,0.2,0.2c0.2,0,0.2,0.1,0.3,0c0,0.1,0,0.1,0.1,0.2
				c-0.3,0.9-0.7,0.7-1.3,1.2c-0.1,0,0,0.2-0.2,0.3c-0.2,0-0.3,0-0.5,0c0,0,0,0,0,0c0.2,0.5,0.3,1.1,0.5,1.6c0.1,0,0.1,0,0.2,0
				c0.2,0.3,0.3,0.5,0.5,0.8c0.2,0.8,0,1.5,0.2,2.3c0.5,1.8,1,3.7,1.6,5.5c0.5,1.5,1,3.1,1.5,4.6c0.3,0,0.6,0.1,0.9,0.1
				c0.5,0.2,1.1,1.1,1.1,1.7c0,0.2-0.2,0.2-0.2,0.3c-0.1,0.3,0,1.2,0,1.5c-0.1,0.7,0.1,1.8-0.2,2.3c-1.6,0.1-2.5,1.8-4.3,0.8
				c-0.2,0.1-0.5,0.3-0.5,0.6c-0.2,0.7-0.1,1.6,0,2.4c0,0.9,0.1,1.8,0.1,2.7c0,0.5,0,1.1,0,1.6c0.1,0.3,0.4,0.5,0.5,0.9
				c0,0.4,0,0.9,0,1.3c0.1,0.4,0.6,1,0.8,1.4c0.4,0.9,0.5,2.2,0.9,3.1c0.1,0.4,0.1,0.8,0.2,1.1c0.2,0.9,0.5,1.9,0.7,2.8
				c0.3,1.1,0.7,2.3,1,3.4c0.1,0.7,0.2,1.4,0.3,2.1c0.2,0.9,0.4,1.8,0.5,2.7c-0.3,0.2-0.5,0.5-0.9,0.6
				C224.1,354.9,224,355.9,224,356.7z M219.3,308.2c0,0.6,0.2,1,0.3,1.5c0.1,0.6-0.3,0.8-0.2,1.4c0.3,0.4,0.8,1.3,0.4,2
				c-0.2,0.2-0.3,0.3-0.5,0.5c0,0.1,0,0.2,0,0.3c0.1,0.2,0.2,0.3,0.4,0.5c0.3,0.6-0.4,0.9-0.4,1.4c0.6,0.5,0.1,0.6,0.2,1.2
				c0.1,0.1,0.2,0.3,0.3,0.4c0,0.2,0,0.4,0,0.6c0.2,0.3,0.4,0.6,0.6,0.9c0.2,0.4,0.4,0.8,0.5,1.2c0.7,0.2,1.3,0.3,2,0.5
				c0-0.1,0-0.1,0-0.2c-0.2-0.9-0.4-1.8-0.6-2.7c-0.6-2-1.2-4-1.8-6.1C220.2,310.9,219.7,308.5,219.3,308.2z M224.3,352.1
				C224.3,352.2,224.4,352.2,224.3,352.1C224.4,352.1,224.3,352.1,224.3,352.1z M202.7,353C202.7,353.1,202.7,353.1,202.7,353
				C202.7,353,202.7,353,202.7,353z M205.1,353.2C205.2,353.3,205.2,353.3,205.1,353.2C205.2,353.2,205.2,353.2,205.1,353.2z
				 M200.7,353.4C200.7,353.5,200.8,353.5,200.7,353.4C200.8,353.4,200.7,353.4,200.7,353.4z M205.6,353.5
				C205.7,353.6,205.7,353.6,205.6,353.5C205.7,353.5,205.7,353.5,205.6,353.5z M205.7,353.8c0,0.1,0,0.1,0,0.2c0,0,0.1,0,0.1,0
				c0-0.1,0,0,0.1-0.1c0,0,0-0.1,0-0.1C205.7,353.8,205.7,353.8,205.7,353.8z M223.5,354.5c0.1,0.1,0,0.1,0.1,0.1c0,0,0-0.1,0-0.1
				C223.6,354.5,223.5,354.5,223.5,354.5z M223.8,354.8C223.9,354.8,223.9,354.8,223.8,354.8C223.9,354.8,223.9,354.8,223.8,354.8z
				 M218.1,354.8C218.2,354.9,218.2,354.9,218.1,354.8C218.2,354.8,218.2,354.8,218.1,354.8z M222.5,354.8
				C222.5,354.9,222.5,354.9,222.5,354.8c0,0.2-0.1,0.2,0.1,0.2C222.6,355,222.6,354.9,222.5,354.8
				C222.6,354.8,222.6,354.8,222.5,354.8z M223.6,354.8C223.7,354.9,223.7,354.9,223.6,354.8C223.7,354.8,223.7,354.8,223.6,354.8z
				 M218.6,354.9C218.7,355,218.7,355,218.6,354.9C218.7,354.9,218.7,354.9,218.6,354.9z M223.7,355c0.1,0.1,0,0.1,0.2,0.1
				c0,0,0-0.1,0-0.1C223.8,355.1,223.8,355.1,223.7,355C223.7,355,223.7,355,223.7,355z M221.5,355.3
				C221.6,355.4,221.6,355.4,221.5,355.3C221.6,355.3,221.6,355.3,221.5,355.3z M223.7,355.3C223.8,355.4,223.8,355.4,223.7,355.3
				C223.8,355.3,223.7,355.3,223.7,355.3z M223.8,355.3C223.9,355.4,223.9,355.4,223.8,355.3C223.9,355.3,223.9,355.3,223.8,355.3z
				 M221.4,355.4C221.5,355.5,221.5,355.5,221.4,355.4C221.5,355.4,221.5,355.4,221.4,355.4z"/>
		</g>
	</g>
	<g id="English">
		<polyline class="st13" points="157.8,222.2 63.5,276.6 63.5,276.7 56.8,280.6 118.3,311.5 223.3,250.8 161.8,220 157.8,222.2 		
			"/>
		<polyline class="st13" points="118.3,311.5 122.3,313.8 227.3,253.1 223.3,250.8 		"/>
		<g>
			<ellipse class="st14" cx="358.3" cy="281.8" rx="35.3" ry="15.9"/>
			<path class="st12" d="M346.2,214.3c0,0,4.3,0.1,5.3,0.2c1,0.2,1.6,0.3,2.2,0.4c0.5,0.1,4.2,0.2,4.2,0.2s0.1,0.1,1.3,1.1
				c1.2,1,0.9,1.1,2.8,2.2c1.8,1.1,4,2,4.3,2.2c0.3,0.2,0.5,1.3,1.4,2.7c0.9,1.3,1.4,2,2.4,2.7c0.9,0.7,0.6,0.4,1,1.1
				c0.4,0.7,0.8,1.2,1.1,2.5c0.3,1.3,0.5,2.9,0.5,2.9s-0.3,2-0.3,2.7c0,0.7-0.4,2.3-0.4,2.7c0.1,0.5-0.8,0-1.4-0.1
				c-0.6-0.1-2.5-0.6-3.5-0.8c-1-0.2-2.1-0.1-2.1-0.1s-0.9,2.4-1,3.5c0,1-0.2,2.8-0.4,3.4c-0.2,0.6-0.3,0.5-0.2,1
				c0.2,0.6,0.5,2,0.4,2.3c-0.2,0.3-0.3,0.5-0.5,0.6c-0.2,0.1-0.2,2.3-0.1,2.5c0,0.3-0.4,1-0.5,1.4c-0.2,0.4-0.8,2.4-0.9,3.5
				c-0.1,1.2-0.6,3.5-0.5,4.6c0.1,1,0.5,2.5,0.5,3.7c0,1.1,0.5,5.2,0.5,6.2c0,1,0.1,3.9,0,5.5c-0.1,1.5-0.3,3.2-0.5,3.9
				c-0.2,0.7-0.2,0.9-0.2,1.6c0,0.7,0.2,1.1,0,1.2c-0.2,0.1-0.9,0.1-0.9,0.1l-0.3,0.9c0,0-0.5,0.2-0.9,0.2c-0.4,0-1.8-0.3-2.3-0.5
				c-0.4-0.1-1.5-0.2-2.3-0.3c-0.8-0.1-2.2-0.4-2.8-0.7c-0.5-0.3-0.7-0.4-0.7-0.4s-0.1-0.4,0.1-0.3c0.2,0-0.1-0.5,0.1-0.4
				c0.2,0,0.3,0.1,1.1,0.2c0.8,0.1,1.7-0.2,1.7-0.2l-0.7-0.8c0,0-0.2-0.3,0-0.3c0.2,0,0.2,0,0.2-0.2c0.1-0.2,0.2-0.2,0.5-0.2
				c0.2,0,0-0.1,0.1-0.5c0.1-0.3,0.5-0.6,0.7-1.2c0.2-0.5,0.3-2.5,0.2-2.9c-0.1-0.5-0.4-1.3-0.5-2.2c-0.1-0.8-0.6-4.5-0.4-4.8
				c0.3-0.3,0.4-0.3,0.4-0.6c0-0.3-0.5-0.4-0.8-1c-0.3-0.6-1-6.1-1-6.3c0-0.2-0.6-0.2-2.3-0.6c-1.6-0.4-2.1-0.8-2.6-1.1
				c-0.5-0.4,0.6-1.3,0.6-1.3s0-2.3-0.1-2.4c-0.1-0.1-0.7-0.2-0.8-0.6c-0.1-0.5-0.1-1,0.1-1.5c0.1-0.5,0.2-1.4,0.2-1.4l0.3-0.2
				c0,0,0.2-0.5,0.3-0.9c0.1-0.4,0.3-0.5,0.3-0.5l0.2-0.3c0,0-0.1-0.1,0.5-0.1c0.5,0,0.7,0,0.7,0l0.3-1.7l-0.2-0.1l0.2-1.2l0.2,0
				c0,0,0.3-0.2,0.7-1.7c0.2-1,0.5-2.3,0.5-2.3s0.2-0.4,0.3-0.9c0.1-0.5,0.2-0.8,0.2-0.8s-1,0.1-1.5,0c-0.5-0.1-1.3-0.9-1.7-1.5
				c-0.4-0.6-0.3-2-0.2-2.8c0-0.7-0.2-1.2,0.1-1.5c0.2-0.2,0.5-0.4,0.5-0.4s-0.2-0.1,0.1-0.6c0.3-0.5,0.7-0.5,0.6-0.8
				c-0.1-0.2-0.3-0.4-0.2-0.7c0.1-0.4,0.3-0.6,0.8-0.8c0.5-0.2,1.5-0.3,1.5-0.3s-0.6-1.2-1-1.9c-0.4-0.7-1.8-2.9-2.7-4.2
				c-0.9-1.3-2.2-3.2-2.4-3.4c-0.2-0.2,0.1-0.3,0.1-1.5c0-1.2-0.2-4.4-0.2-4.7C346.3,214.6,346.2,214.3,346.2,214.3z"/>
		</g>
		<g>
			<ellipse class="st14" cx="429.9" cy="297.3" rx="35.3" ry="15.9"/>
			<path class="st12" d="M422.3,295.1c0.1,0.5,0.1,0.9,0.2,1.4c-0.5,0.2-2.3,1.1-2.8,0.2c0-0.4,0-0.8,0-1.2c-0.1-0.5-0.1-1-0.1-1.4
				c0-0.7,0.4-1.4,0.2-2.3c-0.7-3.9-1-8.6-1-13.1c0-1.4,0.1-3,0.1-4.2c0.1-0.8,0.2-1.6,0.3-2.3c-0.4-1.9-0.7-4.1-1.2-6.1
				c-0.2-0.6-0.5-1.1-0.7-1.7c0-0.2,0-0.4,0-0.6c-0.1-0.5-0.2-0.9-0.3-1.4c-0.1-0.4,0.3-1.6,0.4-2c0-0.3,0-0.7-0.1-1
				c0.1-0.4,0.6-0.8,0.4-1.4c-0.1-0.2-0.3-0.5-0.4-0.7c-0.2-0.5,0-1.2-0.3-1.6c-0.3-0.4-1-0.3-1.2-0.8c-0.4-1-0.5-2.3-0.8-3.3
				c-0.3-0.8-0.6-1.5-0.9-2.3c0.1-0.5,0.2-1.1,0.3-1.6c0.1-0.8-0.1-1.7,0-2.4c0.1-0.8,0.6-1.4,0.8-2.1c0.1-0.5-0.4-1-0.5-1.3
				c-0.2-0.7,0.4-1.1,0.5-1.6c0.1-0.5-0.2-0.9-0.3-1.3c-0.2-0.7,0-1.8-0.1-2.5c0.1-0.4,0.2-0.9,0.3-1.3c0.1-0.4,0.1-0.9,0.1-1.3
				c0.2-1,0.6-2,1.1-2.9c1.1-1.9,3.3-2.1,5.9-1.7c1.1,0.2,2-0.4,2.6,0.5c0.8,1.1-0.3,1.8-0.6,2.4c-0.1,0.2,0,0.9-0.1,1.1
				c0.3,0.3,0.6,0.7,0.9,1c0,0.3-0.2,0.4-0.4,0.6c0,0.6,0.1,2.5-0.2,2.7c-0.4,0.1-0.7,0.3-1.1,0.4c0,0.3-0.2,0.5,0,0.9
				c0.4,0.1,0.6,0.1,0.6,0.5c0,0,0,0,0,0c-0.1,0,0,0-0.2,0c0,0.2,0,0.3-0.1,0.5c0.8,0.2,2,0.2,2.6,0.6c0.5,0.3,0.6,1.1,0.9,1.6
				c0.3,0.4,0.7,0.6,1,1c0.6,0.9,0.9,2,1.4,3.1c0.3,0.6,0.7,1.2,1,1.7c0.1,0.4,0.1,0.9,0.2,1.3c0.2,0.2,0.3,0.4,0.5,0.6
				c0.3,0.8-0.2,3.7-0.5,4.1c-0.2,0.3-0.8,0.7-1.3,0.9c-0.4,0-0.8,0-1.2,0c0,0.4,0,0.7,0,1.1c-0.1,0.3-0.1,0.5-0.2,0.8
				c0.3,1.6,0.5,3.6,0.5,5.3c0,0.9,0.7,1.1,0.4,2.4c0,0.1,0,0.3,0,0.4c0.2,0.3,0.4,0.6,0.7,0.8c0.2,0.5,0.1,1.1,0.3,1.8
				c0.2,0.6,0.5,1.2,0.7,1.8c0.4,1.4,0.7,2.7,1.1,4.1c0.2,0.7,0.3,1.4,0.5,2c0.2,0.5,0.7,0.7,0.9,1.4c0.2,0.5,0.5,1.4,0.4,2
				c-0.1,0.2-0.3,0.5-0.2,0.9c0.5,1,0.9,2,1.4,3c0.3,1,0.6,1.9,1,2.9c0.1,0.3,0.1,0.7,0.2,1c0.4,0.9,0.9,1.7,1.3,2.6
				c0.2,0.5,0.3,1.1,0.5,1.6c0.1,0.4,0.1,0.8,0.2,1.2c0.2,0.2,0.4,0.5,0.7,0.7c0.2,0.3,0.4,0.6,0.6,0.9c0,0.1,0,0.2,0,0.3
				c0.1,0.1,0.8,0.5,1,0.7c0.2,0.3,0.5,1.2,0.7,1.4c0.7,0.7,1.9,0.9,2.7,1.4c0,0.3,0.1,0.3,0.1,0.5c-0.5,0.4-0.7,0.8-1.3,1.1
				c-2.5,1.1-4.3-1.1-5.6-2c-0.5,0-0.5,0.3-0.8,0.4c-0.7-0.1-1.2-0.4-1.7-0.7c0-0.4,0.1-0.9,0-1.4c-0.1,0-0.3-0.1-0.4-0.1
				c-0.1-0.8-0.5-1.5-0.8-2.2c-0.5-1.2-0.9-2.4-1.4-3.6c-1.5-4.1-3.1-8.5-5-12.4c-0.6-1.3-1.2-2.5-1.8-3.8c-0.2-0.4-0.4-1.5-0.8-1.6
				c-0.3,0.6-0.8,3.2-0.7,3.9c0.2,1.1,0.5,2.6,0.3,4c-0.2,2.6-0.6,5-0.2,7.7c0.2,1.4,0,2.8,0.3,4c0,0.3,0,0.6,0.1,0.9
				c0.3,0.3,0.7,0.7,1,1c0.2-0.1,0.4-0.2,0.6-0.3c0.9-0.3,1.6,0.4,1.7,1.1c-0.4,0.6-2.3,1.8-3.4,1.6
				C423.6,295.3,423,295.2,422.3,295.1z"/>
		</g>
	</g>
	<g id="Spanish">
		<polyline class="st15" points="291.8,144.9 197.5,199.3 197.5,199.3 190.8,203.2 252.3,234.1 357.3,173.5 295.8,142.6 
			291.8,144.9 		"/>
		<polyline class="st15" points="252.3,234.1 256.3,236.4 361.3,175.8 357.3,173.5 		"/>
		<g>
			<ellipse class="st16" cx="331.2" cy="300.5" rx="35.3" ry="15.9"/>
			<path class="st12" d="M313.7,243c0.1-0.7,0.9-1.3,1.1-1.5c0.2-0.2,0.4-0.4,0.6-0.6c0.2-0.2,0.7-0.2,1-0.2c0.3,0,0.9-0.3,1.4,0
				c0.5,0.3,1.6,0.8,1.7,1c0.1,0.2,0.6,0.7,0.8,1.1c0.2,0.4,0.4,1.9,0.4,2c0,0.2,0.2,0.7-0.1,1.1c-0.2,0.3-0.4,0.8-0.5,1.2
				c0,0.4-0.2,0.8-0.2,0.8s0.5,0.6,0.7,1c0.2,0.4,0.1,0.6,0.6,0.7c0.5,0.2,0.6,0.2,1.1,0.6c0.4,0.4,0.7,0.7,1,0.9
				c0.2,0.2,0.4,0.4,0.6,1c0.2,0.6,1,2.3,1,2.9c0,0.6,0,1.1,0,1.5c0,0.3,0,0.9,0,1.1c0,0.2-0.1,0.2,0,0.7c0.1,0.5,0,0.8,0.1,1
				c0,0.2,0,1.8,0,2.3c0,0.5,0.1,1.9,0.1,2.4c0,0.5,0,0.6,0,1.3c0,0.7,0.1,0.9-0.1,1.4c-0.2,0.5-0.6,1.3-0.7,1.6
				c0,0.2,0,1.2-0.2,1.6c-0.2,0.4-0.3,1.1-0.5,1.4c-0.2,0.3-0.3,0.5-0.3,0.8c0,0.3,0.2,0.1,0.1,0.7c-0.1,0.6,0,0.9-0.2,1.3
				c-0.2,0.5-0.2,0.8-0.2,1.3c0,0.5,0.3,2.1,0.3,2.1l-0.7-0.6c0,0-0.1,0.3-0.1,0.5c0,0.1,0.2,0.1,0.1,0.3c-0.1,0.2-0.3,0.2-0.3,0.6
				c0,0.4,0.2,0.4,0.2,0.6c0,0.2,0,0.4-0.1,0.8c-0.1,0.4-0.2,0.4-0.2,0.6c0.1,0.2,0.5,0.9,0.5,1.1c0,0.3,0.1,1,0,1.3
				c-0.1,0.3-0.2,0.5-0.2,0.7c0,0.2,0.2,0.6,0.3,1c0.1,0.5,0.3,0.9,0.5,1.5c0.1,0.6,0,1,0.1,1.2c0.1,0.2,0,0.6,0.2,0.9
				c0.1,0.3,1.1,3,1.2,3.5c0.1,0.5,0.2,1.3,0.3,2.1c0,0.8,0.5,4.9,0.5,5.5c0,0.5,0.1,1.3,0.1,1.8c0,0.5,0.2,2.1,0.2,2.4
				c-0.1,0.3-0.3,0.3-0.2,0.6c0.1,0.3,0.2,0.8,0.3,0.9c0.1,0.1,0.3,0,0.3,0.3c0,0.3,0.3,0.6,0.1,0.9c-0.2,0.3-0.6,0.4-0.8,0.5
				c-0.2,0.1-0.5,0.1-0.6,0.1c-0.1,0.1-0.2-0.1-0.3,0c-0.1,0.2-0.4,1-0.9,1.3c-0.6,0.3-0.8,0.3-1.4,0.4c-0.6,0.1-1.8,0.3-2.3,0.4
				c-0.5,0.1-0.8,0-1.1-0.2c-0.3-0.2-0.5-0.3-0.2-0.7c0.3-0.4,0.5-0.6,0.7-0.8c0.2-0.2,0.5-0.3,0.8-0.5c0.2-0.2,0.6-0.2,0.8-0.6
				c0.2-0.4,0.3-0.5,0.3-0.8c0-0.4,0-0.8,0-1c0-0.2-0.1-0.5-0.1-0.5s-1-0.2-1.4-0.2c-0.5,0-1.2-0.1-1.5,0c-0.3,0.1-0.6,0-1,0.2
				c-0.4,0.2-0.6,0.3-1.1,0.4c-0.5,0.1-1,0.1-1.4,0.1c-0.4,0-0.7,0-1.3,0c-0.6,0-0.9,0.2-1.2,0c-0.3-0.2-0.7-0.4-0.6-0.6
				c0-0.2,0.2-0.4,0.2-0.4s-0.6-0.2,0.3-0.3c0.9,0,1.4-0.2,1.6-0.3c0.2-0.1,0.8-0.3,1-0.4c0.3,0,0.5-0.2,0.8-0.3
				c0.3-0.2,0.3-0.1,0.6-0.6c0.3-0.5,0.4-0.9,0.5-1.1c0-0.2,0.5-1.1,0.5-1.1s-0.5-2.8-0.5-3.3c0-0.5,0-0.8,0-1c0-0.3,0.1-0.5,0-0.7
				c-0.1-0.2-0.4-0.7-0.6-1.1c-0.2-0.4-1.1-4.4-1.1-4.7c0-0.3-0.2-1.4-0.3-1.8c0-0.4-0.3-2.1-0.3-2.2c0-0.1-0.1-1.6-0.1-1.6
				l-0.8-2.1c0,0-0.8-2.2-0.8-2.5c0-0.2-0.3-1.3-0.3-1.6c0-0.2-0.1-0.5-0.1-0.9c0-0.4,0-0.9,0-1.2c0.1-0.3,0.2-0.7,0.2-0.9
				c0.1-0.2-0.3-1.2-0.3-1.5c-0.1-0.3-0.2-1.3-0.2-1.3l-0.4-0.4c0,0-0.7-0.4-0.8-0.5c-0.1-0.1-0.7-0.4-0.7-0.4s-0.3-0.1-0.9,0
				c-0.6,0.1-0.5,0.1-0.9,0.2c-0.4,0.1-0.6,0.1-0.6,0.1l-0.3-0.5l0.4-0.7c0,0,0.2-0.5,0.6-0.7c0.4-0.3,0.8-0.7,0.9-0.8
				c0.1-0.1,0.6-0.6,0.6-0.8c0-0.1,0.5-1.9,0.7-2.4c0.2-0.5,0.3-1,0.3-1.3c0-0.3,0.4-0.7,0.5-0.9c0.1-0.2,0.5-0.8,0.6-1
				c0-0.2,0.4-1.1,0.5-1.4c0.1-0.3,0.8-2.4,0.9-2.7c0.1-0.2,0.6-1.5,0.7-1.8c0.2-0.3,0.2-0.7,0.3-0.9c0.1-0.2,0.5-1,0.5-1
				s-0.1-0.5,0-0.6c0.1-0.2,0.4-0.6,0.4-0.6s0.2-0.4,0.2-0.6c0-0.2,0-0.4-0.1-0.6c-0.1-0.2-0.5-0.6-0.6-0.6c-0.2,0-0.9,0-0.9,0
				l-0.3-0.3c0,0-0.2-0.3-0.3-0.7c0-0.3-0.1-0.6-0.2-0.7c-0.1-0.1,0-0.1,0.1-0.2c0-0.1,0-0.1,0-0.2c-0.1-0.1,0-0.2-0.2-0.2
				c-0.2,0-0.1-0.2-0.2-0.3c0-0.1,0-0.3,0-0.4c0-0.1-0.1-0.2-0.1-0.2s-0.2,0-0.4,0c-0.2,0-0.3-0.2-0.3-0.3c0-0.1,0-0.3,0.1-0.4
				c0.1-0.1,0.7-0.8,0.7-0.8s0.1-0.1,0.1-0.2c0-0.1,0-0.4,0-0.5c0-0.1,0-0.4,0-0.5c0.1-0.1,0.1-0.1,0.1-0.2c0,0,0.2-0.3,0.2-0.3
				S313.6,243.7,313.7,243z"/>
		</g>
		<g>
			<ellipse class="st16" cx="235" cy="374.7" rx="35.3" ry="15.9"/>
			<path class="st12" d="M252.9,304.9c3.8,0,4.3,2.9,5.4,5.6c0.3,0.7,0.4,1.1,0.8,1.6c-0.1,0.1-0.1,0-0.1,0.2
				c0.1,0.3,0.2,0.2,0.4,0.4c-0.2,0.1-0.1,0-0.1,0.2c0.1,0.1,0.2,0.1,0.3,0.2c0,0-0.1,0-0.1,0c-0.1,0-0.2,0.1-0.3,0.1
				c0.1,0.2,0.2,0.5,0.1,0.6c-0.4,0.4-1.2,0.3-1.6,0.8c-0.1,0.5,2.2,2.3,2.6,2.8c1.3,1.8,1.3,4.9,1.8,7.6c0,0.7,0,1.4,0,2.1
				c0.2,1.3,0.1,2.9-0.1,4.1c-0.3,2.1-0.5,4.4-0.5,6.6c0,0.7-0.2,1.4-0.1,2c0.2,2.1,0.5,4.1,0.7,6.2c0.1,1.4,0.2,2.8,0.3,4.2
				c0.1,1.8,0.1,3.6,0.2,5.3c0.1,2.8,0.2,5.6,0.3,8.5c-0.8,0.4-1.8,0.3-2.8,0.6c-0.4,0.2-0.7,0.4-1.1,0.5c-0.4,0.1-0.9,0.1-1.1,0.4
				c-0.3,0.7-0.6,3.4-0.5,4.3c0.1,0.6,0.4,1.2,0.4,1.8c-0.1,0.5,0.4,1.8-0.1,2.2c-0.1,0-0.2,0.1-0.3,0.1c0,0.7,0.1,1.6-0.2,2
				c-0.6,0.1-2,0.3-2.4,0.1c-0.1-0.4-0.1-1-0.2-1.6c-1.1,0.3-1.9,1.4-3,1.8c-1.6,0.6-4.1-0.1-5.2-0.6c0-0.3,0.1-0.6,0.1-1
				c0.5-0.2,1.2-0.1,1.9-0.3c0.6-0.1,1.1-0.5,1.6-0.7c0-0.1,0-0.1,0-0.2c-0.8-0.1-1.7-0.5-2.2-0.9c0.1-1.5,1.7-0.5,2.6-0.8
				c0.5-0.1,0.7-0.5,1.1-0.7c0-1.3,0-2.6,0-3.8c0-0.4,0.1-1.2-0.1-1.4c-0.6-0.2-2.1,0.4-2.5-0.2c-0.2-0.4,0.1-1.2-0.2-1.6
				c-0.7,0.3-1.3,0.6-2.1,0.7c0,0,0,0,0,0c0-2.8,0.1-5.4,0.5-7.9c0.1-1.9,0.2-3.9,0.3-5.8c0.2-1.1,0.1-2.2,0.3-3.4
				c0.2-1.2,0.3-2.8,0.1-4c0-2.1,0-4.2,0-6.3c-0.5,0.1-0.9,0.9-1.5,0.8c-0.8-0.1-1.3-0.8-1.7-1.3c-0.3-0.3-0.4,0-0.9-0.2
				c0,0-0.7-0.7-0.7-0.7c0-0.3,0-0.7,0-1c-0.6-2.1,0.9-4.3,1.5-6c0.5-1.5,0.9-3.9,2.5-4.3c0-0.4-0.3-0.8-0.2-1.3
				c0.2-1,1.9-1.8,2.4-2.6c0.4-0.6,0.5-1.7,0.7-2.5c0.2-0.6,0.7-0.8,0.9-1.2c0.1-0.2,0.2-1.3,0.2-1.5c-0.3-0.2-0.9-0.2-1.1-0.5
				c-0.1-0.2,0-0.5-0.1-0.7c-0.1-0.1-0.2-0.2-0.3-0.3c0-0.2,0.1-0.4,0.1-0.6c-0.1-0.3-0.5-0.8-0.5-1c0.1-0.5,0.2-1,0.3-1.6
				c0-0.3-0.2-0.5-0.2-0.7c0.1-0.5,0.1-1.1,0.2-1.6c-0.1-0.1-0.4-0.2-0.6-0.3c-0.1-0.5-0.5-0.7-0.3-1.2c0.4-0.1,0.3-0.4,0.5-0.5
				c0.2,0,0.4-0.1,0.6-0.1c0.3-0.2,0.5-0.6,1-0.8C251.6,305.2,252.2,305,252.9,304.9z"/>
		</g>
		<g>
			<ellipse class="st16" cx="320.3" cy="370.7" rx="35.3" ry="15.9"/>
			<path class="st12" d="M315.9,353.8c-0.5,0-0.8-0.1-1.1-0.2c0-4.6-2.2-10.1-1.5-14.4c0.3-1.9,1.5-7.4,1.1-7.9
				c-0.7,0-1.1-0.1-1.4-0.3c-0.9-2.1,0.3-3.3,0.6-5.3c-0.2-0.4-0.2-0.8-0.7-1c-2,4.3-4,8.7-6,13c-0.2,1,0.3,1.5,0.1,2.5
				c-0.2,0.8-0.3,1.7-0.5,2.5c0.2,0.1,0.4,0.2,0.6,0.3c0,0.1-0.1,0.1-0.1,0.2c-0.5,0-1.2,0.1-1.4,0.3c0.1,0.2,0.2,0.5,0.3,0.7
				c-0.1,0.1-0.1,0.1-0.2,0.2c-2.7-1.1-0.9-3.9-0.4-5.7c0.2-1.1,0.3-2.1,0.5-3.2c0.9-3,1.9-6.5,2.7-9.4c0.6-2.3-0.1-5.4,1-7.2
				c1.8-2.9,4.7-3.2,6.8-5.3c-0.4-3.1-7.4-7-2.1-10.4c6.2-4,11.2,4.8,8.3,9.3c-0.6,0.1-0.9,0.3-1.2,0.6c0,0.1,0,0.3,0,0.4
				c1.5,0.7,3.5,1.4,4.9,2.3c1.2,0.7,2.1,1.9,3.2,2.8c0.9,1.2,1.9,2.3,2.8,3.5c-0.5,0.6-0.7,1.4-1.1,2.1c1.3,3.6,2.5,7.4,3.9,11.3
				c0.4,1.1,1.8,2.9,1.3,4.2c-0.4,1-1.2,2-2.3,2.3c0,0-0.1-0.1-0.1-0.1c0.1-1.3,0-1.9-0.3-3c0,0-0.1,0-0.1,0c0,0.1,0,0.1,0,0.2
				c-0.2,0.3-0.2,0.8-0.2,1.3c-0.1,0-0.3,0-0.4,0c-0.1-0.9-0.2-1.7-0.3-2.6c0.2-0.9,0.3-1.7,0.5-2.6c-0.4-2.4-2.9-7.5-4.3-9.2
				c-0.5-0.6-1.4-1-2-1.6c-0.1,0-0.1,0.1-0.2,0.1c-0.5,2.7,0.3,2.9,0.5,4.9c-0.3,0.4-0.6,0.8-0.9,1.1c0.1,2,1.4,3.4,1.8,5.6
				c0.7,4.3-0.9,8.8-1.8,12.1c-0.3,1.2-0.2,3-0.7,3.9c-1.4,0-3.1-0.3-4.2,0c0,0,0,0.1,0,0.1c0.4,1.7,1.4,3.7,1,6
				c-0.1,1.5-0.2,3.1-0.3,4.6c0.7,3,2.2,6.4,1.4,9.9c-1.3,1-2.7,1.7-4.8,1.1c-0.1-0.4-0.2-0.8-0.3-1.2c-2,0.1-4.8,0.5-6.8,0
				c0-0.1-0.1-0.1-0.1-0.2c0.1-0.4,0.2-0.8,0.3-1.2c1.5-0.5,2.7-1.5,3.9-2.4c0-0.1-0.1-0.1-0.1-0.2c-0.5,0.2-0.7,0.2-1.1,0
				c0-0.1,0.1-0.1,0.1-0.2c1.1-0.3,2.1-0.6,3.2-0.9C317.6,362.4,315.8,359.2,315.9,353.8z"/>
		</g>
	</g>
	<g id="Arabic">
		<polyline class="st17" points="417.1,168.5 495.7,123.1 462.5,106.7 383.9,152.1 		"/>
		<polygon class="st17" points="495.7,123.1 604.8,188.9 526.1,234.3 417.1,168.5 		"/>
		<g>
			<ellipse class="st18" cx="585" cy="382.9" rx="35.3" ry="15.9"/>
			<path class="st12" d="M589.7,308.1c0.9,0,1.1,0.4,1.7,0.6c1.1,0.3,2.5,0.9,2.9,1.8c0.2,0.4,0,0.8,0.1,1.2c0.1,0.3,0.2,0.7,0.3,1
				c-0.3,0.8-0.6,1.5-0.9,2.3c-0.1,0.9-0.2,1.9-0.3,2.8c-0.1,0.2-0.9,1.7-0.8,1.9c0.6,0.3,1.2,0.6,1.8,0.9c1.4,0.7,2.8,1.5,3.7,2.8
				c0.7,1,0.8,2.4,1.3,3.6c0.7,1.8,1.7,3.5,2.3,5.4c0.2,0.8,0.1,1.5,0.2,2.4c0.2,0.5,0.4,1.1,0.6,1.6c0,0.1-0.1,0.2-0.1,0.3
				c0.1,0.2,0.2,0.4,0.2,0.6c0.3,0.9,0.6,2.2,0.5,3.3c0,0.6-0.1,1.2-0.1,1.8c0.1,0.6,0.5,0.8,0.6,1.3c0.1,0.4-0.2,0.7-0.2,1
				c0.1,0.5,0.2,0.9,0.4,1.4c0.4,1.9-1.5,3.8-3.1,2.8c0-0.2-0.1-0.4-0.1-0.6c0.2-0.2,0.6-0.4,0.8-0.6c-0.3,0.1-0.5,0.2-0.8,0.3
				c0,0-0.1-0.1-0.1-0.1c-0.1-0.9-0.7-1.9-0.6-2.9c0.1-0.7,0.8-1.1,0.7-2.1c-0.1-0.7-0.7-1.3-1-1.9c-0.5-0.9-0.5-2.1-1-3.1
				c-0.3-0.5-0.6-1.1-0.8-1.6c0,0-0.1,0.1-0.1,0.1c0.2,0.8-0.1,4.2-0.3,4.7c-0.5,0.1-1.3,0.1-1.7,0.3c0,0,0,0.1,0,0.1
				c0.4,1.4,0.8,3.3,0.5,5.1c-0.3,2.1-1,3.9-1.4,5.9c-0.1,1-0.2,2-0.3,3c-0.4,1.6-0.8,3.1-1.3,4.5c-0.7,2-0.4,4.2-1.7,5.5
				c0.2,1.1,0.5,2.2,0.7,3.2c0.2,1.2,0.1,2.9,0.4,4c0.2,0.6,0.3,1.2,0.5,1.8c0.5,0.2,1.4-0.1,1.8,0.1c0.2,0.5,0.9,0.8,0.7,1.7
				c-0.2,0.8-1.2,1.5-1.9,1.9c-1.3,0.9-0.5,2.3-3.2,2.3c-0.4,0-1.1,0-1.5-0.2c-0.2-0.1-0.4-0.5-0.3-0.8c0.5-1.8-0.6-2.3-0.6-4.1
				c0,0-0.1,0-0.1,0c-0.6,1.6-1.2,3.2-1.8,4.8c-0.4,0.6-1.9,1.6-1.4,2.8c0.3,0.4,0.6,0.7,0.8,1.1c0.4,0.1,0.7,0.3,1.1,0.4
				c0.4,0.3,1.3,1.5,0.7,2.2c-0.4,0.8-1.6,0.7-2.5,0.4c-2.3-0.7-5.3-1.1-7.2-2.3c0-0.1,0-0.2,0-0.3c0.1-0.2,0.2-0.4,0.3-0.6
				c0.6,0,0.7-0.2,1.2,0c-0.3-1.2-0.1-2.1,0.1-3.5c0-0.6-0.1-1.3-0.1-1.9c0.2-0.8,0.7-1.3,1-2c0.5-1,0.8-2.1,1.3-3.1
				c0.4-1.1,0.8-2.2,1.2-3.4c0.5-1.1,1-2.2,1.5-3.3c0.4-1.1,0.3-2.2,0.6-3.5c0.2-0.9,0.5-1.7,0.7-2.6c0.3-1.7-0.7-2.1-1-3
				c-0.2-1-0.4-2.1-0.6-3.1c-0.6-1.4-1.4-2.9-1.9-4.3c-0.6-1.6-1.8-5.1-1.4-6.7c0.2-0.7,0.1-2.2-0.3-2.3c-0.1,0.1-0.4,0.2-0.6,0.1
				c-0.1-0.1-0.2-0.1-0.3-0.2c-0.1-0.7-0.1-3.8-0.4-4.1c-0.1,0.1-0.2,0.2-0.4,0.3c-0.9,2.1-0.4,6.4,0.4,8.3c0.7,1.7,1.8,3.3,1.3,5.6
				c-0.1,0-0.2,0-0.3,0c0,0.4,0,0.7,0,1.1c0,0-0.1,0-0.1,0c-0.6,0.1-1.2-0.1-1.7-0.4c-0.6-0.4-1.4-0.3-1.7-1
				c-0.7-1.4,0.2-3.3-0.1-5.1c-0.4-2.1-1.2-3.9-1.6-5.9c-0.3-1.1,0-2.3-0.1-3c-0.3-0.1-0.5-0.3-0.7-0.5c0.2-0.3,0.3-0.7,0.5-1
				c0.4-1.1,0.7-2.2,1.1-3.4c1-3.2,1.8-7.4,3.7-9.7c0.8-1,2.3-1.9,3.5-2.4c0.7-0.3,1.5-0.3,1.9-0.8c-0.2-0.1-0.3-0.3-0.5-0.4
				c0-0.6,0.2-1,0.4-1.5c-0.1,0-0.2,0.1-0.3,0.1c0,0,0-0.1,0-0.1c-0.1-0.3-0.1-0.8-0.1-1.1c0.4-0.1,0.1-0.3,0.3-0.5
				c0.1,0.1,0.1,0.2,0.2,0.3c0.1-0.1,0.2-0.2,0.3-0.2c-0.1-0.2-0.1-0.1,0-0.4c-0.2,0-0.2-0.1-0.1-0.3c-0.1,0-0.2,0.1-0.3,0.1
				c0,0,0,0,0,0c0.1-0.1,0.2-0.2,0.2-0.3c0,0,0,0,0,0c-0.3,0-0.3,0-0.3-0.2c0.2,0.1,0.4,0,0.5,0c0.3-0.9,0.6-2,0.8-2.9
				c0-0.2,0-0.5,0-0.7c0.2-0.4,0.6-0.5,0.8-0.8c0.2-0.4,0.3-0.7,0.7-1C588,308.4,589,308.4,589.7,308.1z M578.7,330.5
				C578.7,330.5,578.7,330.5,578.7,330.5c0,0.1,0.1,0.1,0.2,0C578.8,330.5,578.8,330.5,578.7,330.5z M578.7,330.6
				c0,0,0.1,0.1,0.1,0.1c0,0,0-0.1,0-0.1C578.8,330.6,578.7,330.6,578.7,330.6z M578.9,331c0,0.1,0,0.2,0,0.2
				C578.9,331.1,578.9,331.1,578.9,331z M596.5,331.5c0,0,0,0.1,0,0.1C596.5,331.6,596.5,331.5,596.5,331.5
				C596.5,331.5,596.5,331.5,596.5,331.5z M579.1,332.2c0,0,0,0.1,0,0.1C579.2,332.3,579.2,332.3,579.1,332.2
				C579.2,332.3,579.2,332.2,579.1,332.2z M579,332.9c0,0.2,0.1,0.1,0,0.3c0.1,0,0.1-0.1,0.2-0.1C579.2,333,579.1,332.9,579,332.9z
				 M596.6,333c0,0,0,0.1,0,0.1c0,0,0.1,0,0.1,0C596.6,333.1,596.6,333.1,596.6,333z M596.3,333.7c0,0.1,0,0.1,0,0.2
				C596.3,333.8,596.3,333.7,596.3,333.7C596.3,333.7,596.3,333.7,596.3,333.7z M596.1,333.9c0,0,0,0.1,0,0.1
				C596.1,334,596.1,333.9,596.1,333.9C596.1,333.9,596.1,333.9,596.1,333.9z M596.3,333.9c0,0.2-0.1,0.1,0,0.2c0,0,0.1,0,0.1,0
				c0,0,0,0,0,0C596.4,334,596.4,334,596.3,333.9z M578.8,334.3c0,0,0,0.1,0,0.1C578.8,334.4,578.8,334.3,578.8,334.3
				C578.8,334.3,578.8,334.3,578.8,334.3z M596.3,334.3c0,0,0,0.1,0,0.1C596.3,334.4,596.3,334.3,596.3,334.3
				C596.3,334.3,596.3,334.3,596.3,334.3z M596.6,334.5c-0.1,0.3-0.1,0.3,0.1,0.6c0,0,0,0,0,0c0,0,0.1,0,0.1,0
				C596.7,334.9,596.6,334.6,596.6,334.5z M578.6,335C578.6,335,578.6,335,578.6,335C578.6,335,578.6,335,578.6,335z M596.9,335.5
				c0,0.1,0,0.1,0,0.2c-0.2-0.1,0-0.1-0.3-0.1c0,0,0,0,0,0c0.1,0.1,0.2,0.2,0.2,0.3c0.1-0.1,0.2-0.1,0-0.1c0-0.1,0.1-0.2,0.1-0.3
				C597,335.5,597,335.5,596.9,335.5z M597.4,335.7c-0.1,0.1-0.1,0.2-0.2,0.2c0,0,0.1,0,0.1,0c0,0.1,0,0.1,0,0.2
				c0,0,0.1-0.1,0.1-0.1C597.4,335.9,597.4,335.7,597.4,335.7z M597.5,336.4c-0.1,0.2-0.1,0.3,0,0.6c0,0,0,0,0,0
				C597.6,336.7,597.6,336.6,597.5,336.4z M597.3,337.4c0,0,0.1,0,0.1,0C597.4,337.5,597.3,337.5,597.3,337.4z M601.4,345.6
				c-0.1,0.1-0.2,0.1-0.4,0.2c0,0.2,0.1,0.4,0.1,0.6c0.1,0,0.1-0.1,0.2-0.1C601.4,346,601.5,345.8,601.4,345.6
				C601.4,345.6,601.4,345.6,601.4,345.6z"/>
		</g>
		<g>
			<ellipse class="st18" cx="455.5" cy="352.5" rx="35.3" ry="15.9"/>
			<path class="st12" d="M453.7,285.8c0.6,0.2,1.3,0.5,1.7,0.9c1.6,1.8,1.3,3.8,2.2,6.1c0.5,1.2,1.4,2.5,1.8,3.6
				c0,0.6,0.1,1.2,0.1,1.8c0.4,1.3,1.2,2.3,1.5,3.7c0.4,1.7-0.3,3.6,0,5.4c0.3,1.8,0.8,3.3,1.2,5.2c0.1,0.8,0.1,1.7,0.2,2.5
				c0.2,1,0.3,2,0.5,2.9c0,0.4-0.1,0.7-0.1,1.1c0.1,0.3,0.2,0.6,0.3,0.9c0.3,1.1,0.4,2.5-0.1,3.4c-0.4,0.9-1.1,1-1.8,1.6
				c0,0-0.1,0-0.1,0c0-0.1-0.1-0.1-0.1-0.2c0.1-0.4,0.4-0.9,0.5-1.3c0-0.1,0-0.2-0.1-0.4c0-0.2,0-0.5,0.1-0.7
				c-0.1-0.3-0.2-0.5-0.3-0.8c0,0-0.1,0-0.1-0.1c0,0,0,0,0,0c-0.2,0.9,0.1,2,0.1,2.7c-0.6,0.3-1.3,0.1-2,0.1
				c-0.9,1.4-1.7,3.6-2.1,5.4c-0.1,0.5-0.4,1.4-0.2,2.1c0.2,0.5,0.3,1.1,0.5,1.6c0,0.5,0.1,1,0.1,1.4c0.3,2.2-0.4,4.3-0.1,6.5
				c0.1,0.9,0.2,1.7,0.5,2.5c0.2,0.4,0.4,0.7,0.6,1.1c0.2,0.7-0.4,2.7-0.6,3.4c0,0.4-0.1,0.7-0.1,1.1c-0.3,0.5-1.6,0.2-2,0.1
				c-0.3,0.2-0.6,0.4-0.8,0.6c-0.8,0.9-0.5,1.8-1.8,2.3c-0.7,0.3-2.5,0.1-2.8-0.4c-0.3-0.4,0.1-1.9,0.2-2.3
				c-0.2-0.1-0.5-0.2-0.7-0.4c-0.1-0.5-0.3-1.3-0.1-1.9c0.4-0.2,2.5-0.8,2.7-1c1.5-2.5,1.4-6.7,0.8-10.2c-0.2-1.3-0.1-2.6-0.4-3.8
				c-0.6-1.4-1.1-2.7-1.7-4.1c-0.3-0.9-1.2-4.5-1.8-4.8c0-0.3,0-0.7,0.1-1c-0.2-1-0.2-2.3-0.2-3.4c0,0,0,0-0.1,0
				c-0.8,0.5-1.8-0.1-2.7,0.1c0.4,2.2-1.6,1.6-2.1,2.5c-0.7,0-2.7,0.2-2.4-1.4c0.3-1.3,1.1-2.5,1.6-3.6c0.2-0.6,0.3-1.1,0.5-1.7
				c0.3-0.8,0.7-1.5,1-2.3c0.4-1,0.5-2,0.9-3.1c0.2-0.4,0.3-0.8,0.5-1.2c0.1-0.6,0.2-1.2,0.2-1.9c-0.2-0.9-1.2-1.8-1-3.1
				c0.1-0.7,0.5-1.1,0.7-1.8c0-0.4,0-0.9,0-1.3c0-0.8,0.1-1.7,0.4-2.4c0.5-1.1,1.7-2.1,1.9-3.1c0.1-0.6-0.2-1-0.1-1.7
				c0.1-0.5,0.5-1,0.3-1.6c-0.1-0.3-0.3-0.6-0.4-0.9c0.1-0.4,0.1-0.8,0.2-1.3c0.4-2.2,1.6-3.6,4.3-3.6
				C453.2,285.8,453.5,285.8,453.7,285.8z M446.7,299.5c0,0.3-0.1,0.6-0.1,0.9c0,0,0,0,0,0c0.1-0.2,0.2-0.7,0.2-0.9
				C446.8,299.5,446.7,299.5,446.7,299.5z M446.7,302.3c-0.2,0.3-0.4,0.6-0.6,0.9c0,0.1,0,0.2,0,0.4
				C446.4,303.5,446.8,302.7,446.7,302.3C446.7,302.3,446.7,302.3,446.7,302.3z M446.5,305.2c0.1,0.1,0.3,0.3,0.4,0.4
				c0.3-0.7,0.4-2.2,0.2-3.1C446.2,302.9,446.1,304.3,446.5,305.2z M446.5,305.7c0,0.2,0.1,0.3,0.1,0.5c0,0,0.1,0.1,0.1,0.1
				c0,0,0,0,0,0c0-0.1,0-0.2,0-0.3c0-0.1-0.1-0.1-0.1-0.2C446.6,305.7,446.6,305.7,446.5,305.7z M445.3,318.5
				c0.1-0.7,0.2-1.4,0.3-2.1c0,0,0,0-0.1,0c-0.3,0.3-0.1,0.9-0.3,1.3c-0.1,0.3-0.4,0.5-0.5,0.8C444.9,318.5,445.1,318.5,445.3,318.5
				z"/>
		</g>
	</g>
	<g id="Urdu">
		<g>
			<ellipse class="st19" cx="604.8" cy="440.1" rx="35.3" ry="15.9"/>
			<path class="st12" d="M604.2,360.7c3.7,0,4,2.6,5.6,4.7c0.8,1.1,1.7,2.1,2.3,3.5c0.5,1.1,1.3,4.2-0.1,5c0.1-0.2,0.1-0.4,0.2-0.6
				c0-0.1-0.1-0.1-0.1-0.2c-0.1,0.3-0.1,0.5-0.4,0.7c0.1-0.3,0.1-0.5,0.2-0.8c-0.5,0.1-0.6,0.6-0.7,0.9c-0.1,0-0.1-0.1-0.2-0.1
				c0-0.1-0.1-0.2-0.1-0.4c0,0-0.1,0-0.1,0.1c-0.1,0.2-0.2,0.4-0.2,0.6c0,0-0.1,0-0.1,0c0-0.1,0-0.2,0-0.3c0.1-0.4,0.1-0.7,0.2-1.1
				c-0.1,0-0.1,0-0.2,0c-0.2,0.4-0.4,0.6-0.5,1.1c0.3,0.4,0.8,0.6,1.2,0.9c0.9,0.7,2,1.7,2.7,2.7c1.1,1.4,1.4,3.4,2.8,4.5
				c-0.3,0.7-0.9,1.4-1.4,2c0.4,0.9,0.8,1.8,1.2,2.8c0.5,0.7,1.1,1.3,1.5,2.2c1.1,2.6,2,5.1,3.3,7.5c0.6,1.2,2.1,3.6,0.4,4.6
				c-0.2,0.1-0.5,0.2-0.8,0.2c-0.2-0.3-0.3-0.3-0.4-0.8c-0.1-0.2,0.1-0.5-0.1-0.8c-0.3-0.6-1.1-1.2-1.3-1.9c-0.4-1,0.1-2.3-0.5-3.1
				c-1.3-1.8-3.5-3.1-4.5-5.2c-0.4-0.8-0.3-1.8-0.6-2.5c-0.2-0.3-0.4-0.7-0.5-1c-0.3-0.1-0.5-0.1-0.8-0.2c-0.7-0.6-0.9-2.2-1.7-2.9
				c-0.1,0-0.2,0-0.2-0.1c-0.1,0.1-0.2,0.1-0.2,0.2c0,0.6,0.2,1.2,0.1,1.8c-0.3,1.3-1.6,2-1.2,3.8c0.9,0.3,1.5,2.3,1.2,3.8
				c-0.1,0.3-0.3,0.6-0.2,0.9c0.2,0.2,0.4,0.1,0.6,0.3c0.8,0.8,1.5,1.7,2.3,2.5c-0.2,0.4-0.3,0.7-0.5,1.1c-0.1,0.8,0.4,0.9,0.5,1.5
				c-0.1,0.3-0.1,0.6-0.2,0.9c0,1.3,0.1,2.5,0.1,3.7c0,0.8-0.3,2.1-0.8,2.5c-0.3,0.2-0.5,0.4-0.8,0.5c-0.4,0.7-0.3,1.8-0.5,2.8
				c-0.1,0.1-0.2,0.2-0.4,0.2c0,0-0.1,0-0.1,0c-0.1-0.1-0.2-0.2-0.2-0.3c0-0.7,0.3-1.6,0-2.2c-0.6,0-1.5-0.1-1.8,0.2
				c-0.5,0.9-0.6,2.1-0.9,3.2c-0.7,2.5-1.2,5.1-1.6,7.7c0,1.1,0,2.3,0,3.4c-0.4,2.5-0.5,4.7-1.1,6.7c-0.5,1.8,0.5,5.1-0.8,6.2
				c0.3,0.9,0.8,1.2,0.3,2.1c0,0,0,0.1,0.1,0.1c0.3,0,0.3,0,0.5-0.1c0-0.4,0-0.4-0.2-0.6c0.3,0,0.2,0.1,0.4,0.2c0,0.1,0,0.2,0,0.3
				c-0.1,0.4-0.3,0.3-0.6,0.5c0,0.1,0,0.2,0,0.3c0.4,0.3,0.5,0.7,0.9,1c0.8,0.7,1.9,1.1,1.6,2.6c-0.8,0.9-5.8,1.6-7.3,0.7
				c0-2,0.8-3.8,1.2-5.3c0-1.4,0-2.8-0.1-4.3c-0.2-0.1-0.3-0.2-0.5-0.3c0-0.7-0.2-1.4,0.1-2c0.1-0.2,0.3-0.4,0.4-0.6
				c-0.1-1.5-0.2-3-0.3-4.4c-0.3-0.7-0.5-1.4-0.8-2.1c-0.3-1.3-0.6-2.6-0.9-3.9c-0.2-1,0-2.1,0.2-2.9c-0.1-1.5-0.2-3-0.2-4.5
				c-0.4-1.2-0.8-2.3-1.2-3.5c-0.3-0.2-0.5-0.4-0.8-0.6c-0.5-0.8-0.6-2.2-1.3-2.7c-0.3-0.1-0.4,0-0.6,0.1c-0.2,1.1-0.8,1.9-1.4,2.5
				c0,0,0,0-0.1,0c-0.5-0.4-1.1-1.1-1.5-1.5c0.1-0.6,0.4-1.1,0.2-1.8c-0.1-0.6-0.9-0.7-0.7-1.6c0.3-1.5,1.5-2.6,1.7-4.2
				c-1.4-2.3,0-1.7,0.4-3.3c0.3-1.3-0.7-2.1-0.8-3.2c0.8-0.4,1.7-0.7,2.4-1.2c0.5-2-0.2-4.6-0.7-6.8c-1.4,0.4-1.7,2.5-2.5,3.5
				c-0.8,1-1.5,2-2.3,3c-1,1.3-2.4,2.4-3.2,3.9c-0.2,0.6-0.4,1.2-0.6,1.8c0,0.5,0,1.1,0,1.6c-0.3,1.4-1.4,2.8-2.3,3.7
				c0.1,0.2,0.2,0.4,0.2,0.6c0,0-0.1,0.1-0.1,0.1c-0.1,0-0.1,0-0.2,0c-0.8-1.1-1.9-3-1.4-4.7c0.3-1.1,1.5-1.5,1.9-2.5
				c0.6-1.6,1.4-2.5,2.2-3.9c1.2-2,1.8-4.1,3.1-6c0.3-0.4,0.8-0.7,1.1-1.2c1-1.7-0.3-1.7-0.1-2.9c0.5-0.9,1-1.8,1.5-2.6
				c0.1-0.5,0.2-1.1,0.2-1.6c0.4-0.8,2-2.8,2.8-3.3c0.8-0.5,2.2-0.6,3-0.7c0.1-0.1,0.2-0.2,0.3-0.3c-0.1-0.2-0.2-0.5-0.3-0.7
				c0.3,0.2,0.5,0.2,0.8,0.2c0-0.3,0-0.5,0-0.7c0.1,0.1,0.3,0.2,0.4,0.3c1.8-1.4,1.1-4.5,1.9-7C601.2,362,602.5,361.4,604.2,360.7z
				 M610,368.7c-0.4,1.2-0.2,2.9,0,4c0.1,0,0.1,0,0.2,0c0.4-1.1,1.4-3.1,0-4C610.1,368.8,610,368.8,610,368.7z M611.2,370.7
				c-0.1,0.3-0.2,0.6-0.2,0.9c0,0,0,0,0.1,0c0,0,0.1,0,0.1-0.1c0.1-0.2,0.2-0.3,0.3-0.5c0-0.1-0.1-0.2-0.1-0.4
				C611.3,370.7,611.2,370.7,611.2,370.7z M611.5,372c-0.2,0.2-0.5,0.4-0.7,0.6c0,0.2,0,0.4,0.1,0.5c0.1,0,0.2,0,0.2,0.1
				C611.3,372.9,611.6,372.5,611.5,372C611.5,372,611.5,372,611.5,372z M609.6,372.3c0,0.3,0,0.5,0,0.8c0.1,0,0.1,0,0.2,0
				c0-0.2,0-0.4,0-0.6c0-0.1,0-0.1-0.1-0.2C609.6,372.3,609.6,372.3,609.6,372.3z M609.6,373.6c0.1,0.1,0.1,0.2,0.2,0.2
				c0-0.1,0-0.2,0-0.2C609.7,373.6,609.6,373.6,609.6,373.6z M620.2,397.8c-0.1,0.1-0.1,0.2-0.1,0.4c0.1,0.2,0.2,0.3,0.4,0.5
				c0.1,0,0.2,0,0.3,0c0-0.1,0-0.2,0-0.2c-0.1-0.2-0.2-0.4-0.4-0.6C620.3,397.8,620.3,397.8,620.2,397.8z"/>
		</g>
	</g>
	<g id="French">
		<g>
			<ellipse class="st20" cx="264.9" cy="395" rx="35.3" ry="15.9"/>
			<path class="st12" d="M270.9,334.2c0.6,0.1,1.1,0.3,1.6,0.4c0.3,0,0.6,0,0.8,0c0.6,0,1.1,0.2,1.5,0.5c1.4,1,2,3,2.4,5.1
				c0.3,1.4,0.1,3.1,0.7,4.1c0.9,1.4,2.8,0.4,3.4,2.6c0.1,0.6,0.1,1.2,0.2,1.8c0.3,1.4,0.7,2.8,1,4.1c0.3,1.3,0.4,2.4,0.8,3.5
				c0.2,0.6,0.5,2.4,1,2.6c0.2,0.1,0.5,0.1,0.7,0.1c0.2,0.8,0.4,1.7,0.6,2.5c0.3,1,0.5,2,0.8,3c0.3,0.7,0.8,1.6,0.3,2.3
				c-0.9,0.3-3,2.3-4.2,1.8c-0.4-0.1-0.4-0.8-0.8-0.9c0,0,0,0,0,0.1c0,0.7,0,1.4,0,2c-0.2,1-0.4,1.9-0.5,2.9c-0.4,1.7-1,3-1.3,4.7
				c0,1.2-0.1,2.3-0.1,3.5c0,0.3-0.3,0.8-0.3,1c0.1,0.3,0.3,1.2,0.2,1.7c-0.2,1-0.3,2.1-0.1,3.2c0.4,2.2,0,4.4,0.3,6.5
				c0.1,0.3,0.2,1.9,0,2c-0.5,0.3-1.6-0.1-2.1,0.2c-0.1,0.8-0.6,1.8-0.3,2.7c0.2,0.6,1.2,0.9,1.1,1.7c-0.1,0.2-0.2,0.4-0.3,0.6
				c0.5,0.3,1.1,2.3,0.7,3.3c-0.1,0-0.1,0.1-0.2,0.1c0,0.3,0,0.6-0.1,0.8c-0.3,0.4-0.9,0.2-1.4,0.4c-0.2,0.1-0.5,0.3-0.7,0.4
				c-0.6,0.2-1.4,0.1-2.1,0c-0.6-0.1-2,0.2-2.4-0.2c-0.3-0.2-0.3-0.6-0.4-0.9c-0.3-0.1-0.5-0.2-0.6-0.4c0-0.3,0-0.7,0.1-1
				c0.1,0,0.3-0.1,0.4-0.1c0.1-0.8,1.3-0.8,1.7-1.3c0.2-0.3,0.4-0.7,0.5-1c1.1-1.9,0.9-3.3,0-5.3c-0.1,0-0.9-0.5-0.9-0.5
				c-0.4-0.5-0.2-2-0.4-2.7c-0.4-1.4-0.7-2.9-1.1-4.3c-0.2-0.8,0-1.7-0.2-2.6c-0.1-0.5-0.3-0.9-0.4-1.4c0-0.7-0.1-1.4-0.1-2.2
				c-0.2-1.1-0.3-2.2-0.5-3.3c-0.7-2.7-1.4-5.3-1.8-8.2c-0.2-1.5,0-3.4,0.2-4.5c0-0.3,0-0.6,0-0.9c0.2-0.5,1-2.5,0.9-2.9
				c-0.1-0.2-0.4-0.2-0.6-0.3c0-0.3,0.2-0.3,0.2-0.5c0-0.2,0-0.5,0-0.7c0.2-0.6,0.5-1,0.6-1.7c-0.2-0.2-0.3-0.4-0.3-0.6
				c-0.8,0.2-2.7,1.6-3.8,0.6c-0.3-0.2-0.8-2.2-0.8-2.7c0-0.3,0-0.7,0.1-1c-0.1-0.2-0.3-0.5-0.4-0.8c-0.2-0.8,0.3-1.8,0.6-2.2
				c0.1-0.2,0.3-0.3,0.4-0.5c0.2-0.5,0.1-1.1,0.2-1.5c0.6-2,1.7-2.8,3.6-3.5c0-0.4-0.3-0.7-0.4-1c-0.3-0.7-0.4-1.4-0.4-2.3
				c0.1-0.4,0.2-0.9,0.3-1.3c0.2-0.9,0.3-1.9,0.5-2.8c0.2-0.7,0.3-1.3,0.5-2.1c0.1-0.3,0.2-0.6,0.3-0.9c-0.1,0-0.3,0-0.4,0.1
				c-0.2,0.2-0.3,0.5-0.4,0.8c0,0,0,0,0,0c0-1,0.1-2,0.9-2.3C270.3,334.4,270.6,334.3,270.9,334.2z M281.2,350
				c-0.1,0.5-0.2,1-0.3,1.5c0,0.3,0.2,0.3,0.1,0.6c-0.1,0.2-0.3,0.3-0.4,0.5c-0.1,0.3,0.1,0.7,0.2,0.9c0,0.2,0,0.5,0,0.7
				c0.3,1.3,1.2,2.4,2,3.2c0.2-0.1,0.3-0.1,0.5-0.2c0,0,0,0,0,0c-0.6-1.3-0.9-2.9-1.3-4.5c-0.2-0.9-0.4-1.7-0.6-2.6
				C281.3,350,281.3,350,281.2,350z M280.4,354.6c0,1.1,0.2,2.4,0.6,3.2c0.1,0,0.1,0,0.2,0c0-0.1,0.1-0.1,0.1-0.2
				c0-1.1-0.5-2.1-0.7-3C280.5,354.6,280.5,354.6,280.4,354.6z M281.3,355.9c0,0.7,0.3,1.3,0.6,1.8c0.2-0.1,0.4-0.2,0.6-0.3
				c0,0,0-0.1,0-0.1C282.1,357,281.8,356.1,281.3,355.9z M280.5,357.5c-0.1,0.5,0.1,0.9,0.2,1.4c0,0,0.1,0,0.1,0c0-0.1,0-0.2,0-0.3
				C280.8,358.3,280.8,357.7,280.5,357.5z"/>
		</g>
		<g>
			<ellipse class="st20" cx="405.6" cy="350.7" rx="35.3" ry="15.9"/>
			<path class="st12" d="M408.7,280.7c0.9,0,1.3,0.3,1.9,0.6c2.2,1,1.1,1.6,1.8,3.8c0.2,0.7,0.5,1.4,0.7,2.2c0,0.5,0,1,0,1.5
				c0.1,0.3,0.1,0.5,0.2,0.8c-0.1,1-0.7,1.6-0.9,2.4c1.4,0.8,1.7,1.3,2.5,2.7c0.3,0.4,0.4,1.4,0.8,1.6c0.7,0.4,1.5,0.5,2.1,1
				c0.7,0.6,1.3,1.3,2.1,1.8c0.2,0.5-0.1,1-0.1,1.6c0,0.4,0.3,0.5,0.3,0.9c0.2,0.8-0.3,1.3-0.8,1.5c0,0.9-0.1,1.4-0.3,2
				c0.1,1,0.2,1.9,0.3,2.9c0.4,2.3,0.1,4.9,0.8,6.8c0.4,0,0.7,0,1.1,0c0.2,0.9,0.4,1.7,0.6,2.5c0.2,1.2,0.4,2.3,0.6,3.5
				c0.2,0.7,0.6,1.8,0.2,2.4c-2.2,0.4-4.6,0.5-7.2,0.5c-0.9,0-2.4,0.2-3-0.2c0-1.3,0-2.7,0-4c-0.1,0-0.1,0-0.2,0
				c-0.8,2.1-1.3,4.4-2.1,6.7c-0.4,1-0.9,2-0.7,3.4c-0.1,0.9-0.1,1.8-0.2,2.7c0.4,1.6,0.8,3.1,1.2,4.7c0.2,1.1,0.3,2.1,0.5,3.2
				c0,0.6-0.1,1.2-0.1,1.7c0.1,0.1,0.2,0.3,0.3,0.4c0.4-0.1,0.8-0.3,1.3-0.1c0.9,0.5,0.4,1.8-0.2,2.2c-0.5,0.4-2.7,0.4-2.7,0.5
				c-0.6,0.7,0.5,1.8-0.8,2.4c-0.3,0.1-1,0-1.2-0.1c-0.1-1-0.3-1.7-0.5-2.4c-0.2-1,0-2.3-0.5-3.1c0,0-0.1,0-0.1,0
				c-0.4,1.4-2.5,6.7-1,7.7c0.6,0,1.2-0.2,1.8,0c0.3,0.4,0.5,0.8,0.4,1.4c-0.8,0.4-1.6,1.3-3,1c-1-0.2-1.6-1.5-2.2-1.1
				c-0.1,0.6-0.1,1.2-0.2,1.7c-0.7,0.3-1.9,0.5-2.5,0.1c-0.1-0.5,0-1.3,0-1.7c0-0.5,0-1.1,0-1.6c0.2-1,0.6-1.7,0.7-2.7
				c0.2-0.9,0-1.7,0.2-2.5c0.3-1.3,0.6-2.8,0.9-4.2c0.2-1.2,0.3-2.4,0.5-3.7c0.5-2.4,1.2-5.2,1.7-7.7c0.2-1.2-0.2-2.4-0.4-3.4
				c-0.1-0.6-0.2-1.3-0.3-1.9c-0.7-2-1.7-3.7-2.2-6.1c-0.3-1.5-0.2-4.1,0-5.6c0.1-0.6,0.2-1.3,0.3-1.9c-0.6-1-1.7-1.6-2.2-2.9
				c-0.4-1.1-0.3-2.5-0.5-3.8c-1-0.1-1.5,0.4-2.3-0.3c-1-0.8-0.6-3.5,0-4.5c0.2-0.2,0.5-0.4,0.7-0.6c0.2-0.3,0.1-0.5,0.2-0.9
				c0.2-0.2,0.4-0.4,0.6-0.7c0-0.3-0.1-0.6-0.1-1c0.3-0.2,0.5-0.4,0.8-0.6c0.4-0.5,0.5-1.1,1.1-1.4c0.7-0.4,1.6-0.2,2.1-0.8
				c0,0,0-0.1,0-0.1c-0.3-0.1-0.5-0.3-0.6-0.5c0.2,0.1,0.4,0.2,0.7,0.3c0,0,0-0.1,0-0.1c-0.2-0.1-0.2-0.2-0.2-0.4c0,0,0.1,0,0.1,0
				c0.1,0.2,0.3,0.3,0.5,0.5c0,0,0.1,0,0.1,0c0-0.1,0-0.2,0-0.3c0.1,0.1,0.1,0.2,0.2,0.2c0,0,0.1,0,0.2-0.1c0-0.1-0.1-0.2-0.1-0.3
				c0.1,0.1,0.3,0.1,0.4,0.2c0.3-0.2,0.5-0.3,0.6-0.8c-0.3,0.2-1.1,0.8-1.6,0.5c0,0,0,0,0,0c0.2-0.1,0.1,0,0.2-0.2
				c-0.2-0.1-0.3-0.2-0.5-0.2c0,0,0,0,0,0c0.3,0,0.4,0,0.6-0.2c0,0,0-0.1,0-0.1c-0.2-0.2-0.5-0.1-0.8-0.3c0.2,0,0.4-0.1,0.5-0.1
				c0,0,0,0,0,0c-0.2-0.1-0.3-0.1-0.5-0.2c2.6,0.3,1.9-1.3,2.2-3.4c0.2-1,0.2-1.9,0.6-2.7c0.6-1.2,1.6-2.4,2.9-2.9
				C407.5,281,408.1,280.8,408.7,280.7z M416.3,299.3c0,0.2-0.1,0.3,0,0.5c0.1,0.2,0.2,0.4,0.5,0.3c0-0.1,0-0.3,0-0.4
				C416.7,299.5,416.5,299.4,416.3,299.3z M417.4,315c1,0,1.8,0,2.5-0.2c-0.1-1-0.3-1.9-0.4-2.9c-0.4-2.1-0.3-4.2-0.8-6
				c-0.1,0-0.1,0-0.2,0c0,1.5-0.4,3-0.7,4.3C417.5,311.7,417.4,313.3,417.4,315z M413.7,315.4c0-2.1,0.5-3.9,0.9-5.6
				c0.2-0.8,0.3-1.7,0.5-2.5c-0.1-0.2-0.4-0.4-0.6-0.5c0,0,0,0,0,0c-0.1,0.5-0.2,1-0.3,1.4c-0.4,0-0.8,0.1-1.2,0.1c0,1,0.3,2,0.5,3
				c0.1,0.5-0.1,0.9-0.1,1.2c0,1,0,2,0,3C413.4,315.4,413.5,315.4,413.7,315.4z M416.6,315c0.2,0,0.3,0,0.5,0c0-1,0.2-2,0.4-2.9
				c0.1-1.6,0.3-3.2,0.4-4.7c-1.3,0.9-0.8,0.5-2.3,0.2c0,0.2,0,0.5,0,0.7c0.1,0.7,0.2,1.4,0.2,2.1
				C416.2,311.8,416.6,313.2,416.6,315z M414,315.3c0.8-0.1,1.5-0.2,2.3-0.2c0,0,0,0,0,0c-0.1-0.6-0.3-1.1-0.4-1.7
				c-0.1-1.3-0.2-2.7-0.3-4c-0.1-0.6,0.2-1.7-0.2-2c0,0,0,0-0.1,0c0,0,0,0.1,0,0.1c-0.1,0.7-0.2,1.3-0.3,2c-0.2,0.9-0.4,1.8-0.5,2.7
				c-0.1,0.7-0.1,1.3-0.2,2C414.2,314.5,414.1,314.9,414,315.3z"/>
		</g>
	</g>
	<g id="French-arabic">
		<path class="st14" d="M432.5,340.4c-7.5,2.9-12.3,7.2-12.3,12c0,3.9,3.2,7.5,8.4,10.3l0,0c7.5-2.9,12.3-7.2,12.3-12.1
			C440.9,346.8,437.7,343.2,432.5,340.4"/>
	</g>
	<g id="Spanish-english">
		<path class="st14" d="M323.7,285c3.3,7.2,17.5,12.6,34.5,12.6c2.6,0,5.1-0.1,7.5-0.4l0,0c-3.3-7.2-17.5-12.6-34.6-12.6
			C328.6,284.7,326.1,284.8,323.7,285"/>
	</g>
	<g id="Spanish-wolof">
		<path class="st14" d="M203.4,367.6c3.2,0.4,6.6,0.7,10.2,0.7c13.9,0,25.8-3.6,31.6-8.8l-0.5,0c-3.1-0.4-6.3-0.6-9.7-0.6
			c-14.6,0-27.2,4-32.5,9.7"/>
	</g>
	<g id="Spanish-french">
		<path class="st14" d="M268.7,379.3c-4.4,6.5-17.8,11.3-33.8,11.3c-1.3,0-2.6,0-3.9-0.1c4.4-6.5,17.8-11.3,33.8-11.3
			C266.2,379.2,267.5,379.2,268.7,379.3"/>
	</g>
</g>
<g id="barchart">
	<g id="rectangles_1_">
		
			<rect id="french" x="857.4" y="158.8" transform="matrix(6.123234e-17 -1 1 6.123234e-17 696.8694 1053.5348)" class="st21" width="35.6" height="39.1"/>
		
			<rect id="urdu_1_" x="866.6" y="131.9" transform="matrix(6.123234e-17 -1 1 6.123234e-17 723.7206 1026.6836)" class="st22" width="17.3" height="39.1"/>
		
			<rect id="spanish_5_" x="848.6" y="238.8" transform="matrix(6.123234e-17 -1 1 6.123234e-17 616.8298 1133.5745)" class="st15" width="53.3" height="39.1"/>
		
			<rect id="english" x="857.4" y="300.8" transform="matrix(6.123234e-17 -1 1 6.123234e-17 554.8994 1195.5049)" class="st13" width="35.6" height="39.1"/>
		
			<rect id="wolof_1_" x="866.4" y="274.1" transform="matrix(6.123234e-17 -1 1 6.123234e-17 581.5445 1168.8597)" class="st10" width="17.7" height="39.1"/>
		
			<rect id="arabic_4_" x="857.4" y="194.4" transform="matrix(6.123234e-17 -1 1 6.123234e-17 661.2728 1089.1315)" class="st17" width="35.6" height="39.1"/>
	</g>
	<g id="txt">
		<text id="patois_2_" transform="matrix(1 0 0 1 909.5117 155.4073)" class="st23 st24 st25">1 Urdu Speaker</text>
		<text id="polish_2_" transform="matrix(1 0 0 1 909.5117 178.6671)" class="st23 st24 st25">2 French Speakers</text>
		<text id="arabic_2_" transform="matrix(1 0 0 1 909.5117 213.9294)" class="st23 st24 st25">2 Arabic Speakers</text>
		<text id="spanish_2_" transform="matrix(1 0 0 1 909.5117 258.3724)" class="st23 st24 st25">3 Spanish Speakers</text>
		<text id="chinese_2_" transform="matrix(1 0 0 1 909.5117 296.9911)" class="st23 st24 st25">1 Wolof Speaker</text>
		<text id="english_2_" transform="matrix(1 0 0 1 909.1611 324.9695)" class="st23 st24 st25">2 English Speakers</text>
	</g>
	<g id="lines">
		<line class="st26" x1="855.7" y1="160.5" x2="907" y2="160.5"/>
		<line class="st26" x1="855.7" y1="196.1" x2="907" y2="196.1"/>
		<line class="st26" x1="855.7" y1="231.7" x2="907" y2="231.7"/>
		<line class="st26" x1="855.7" y1="302.5" x2="907" y2="302.5"/>
		<line class="st26" x1="855.7" y1="338.1" x2="907" y2="338.1"/>
		<line class="st26" x1="855.7" y1="285" x2="907" y2="285"/>
		<line class="st26" x1="855.7" y1="142.8" x2="907" y2="142.8"/>
	</g>
</g>
</svg>
